<mxfile host="65bd71144e">
    <diagram id="cl9pHFJJxzllaQqiW4cm" name="PÃ¡gina-1">
        <mxGraphModel dx="322" dy="181" grid="1" gridSize="10" guides="1" tooltips="1" connect="1" arrows="1" fold="1" page="1" pageScale="1" pageWidth="827" pageHeight="1169" math="0" shadow="0">
            <root>
                <mxCell id="0"/>
                <mxCell id="1" parent="0"/>
                <mxCell id="548" value="" style="edgeStyle=orthogonalEdgeStyle;html=1;endArrow=none;endFill=0;rounded=0;fillColor=#6a00ff;strokeColor=#FF33FF;exitX=0.75;exitY=1;exitDx=0;exitDy=0;" edge="1" parent="1" source="7" target="547">
                    <mxGeometry relative="1" as="geometry">
                        <mxPoint x="480" y="480" as="sourcePoint"/>
                    </mxGeometry>
                </mxCell>
                <mxCell id="550" value="1" style="edgeLabel;html=1;align=center;verticalAlign=middle;resizable=0;points=[];" vertex="1" connectable="0" parent="548">
                    <mxGeometry x="-0.8356" y="-1" relative="1" as="geometry">
                        <mxPoint x="-9" y="4" as="offset"/>
                    </mxGeometry>
                </mxCell>
                <mxCell id="7" value="Usuarios" style="whiteSpace=wrap;html=1;align=center;fillStyle=auto;strokeColor=#FF33FF;fillColor=none;gradientColor=none;gradientDirection=south;" parent="1" vertex="1">
                    <mxGeometry x="430" y="440" width="100" height="20" as="geometry"/>
                </mxCell>
                <mxCell id="35" style="edgeStyle=none;html=1;exitX=0;exitY=1;exitDx=0;exitDy=0;strokeColor=#000000;fontSize=9;" parent="1" source="13" edge="1">
                    <mxGeometry relative="1" as="geometry">
                        <mxPoint x="561.3333333333334" y="417.4166666666667" as="targetPoint"/>
                    </mxGeometry>
                </mxCell>
                <mxCell id="13" value="" style="ellipse;whiteSpace=wrap;html=1;aspect=fixed;fillStyle=auto;gradientDirection=south;strokeColor=#000000;fillColor=#000000;" parent="1" vertex="1">
                    <mxGeometry x="560" y="408.75" width="10" height="10" as="geometry"/>
                </mxCell>
                <mxCell id="17" value="" style="endArrow=none;html=1;rounded=0;exitX=1;exitY=0.25;exitDx=0;exitDy=0;entryX=0;entryY=0.5;entryDx=0;entryDy=0;strokeColor=#000000;" parent="1" source="7" target="13" edge="1">
                    <mxGeometry relative="1" as="geometry">
                        <mxPoint x="450" y="428.75" as="sourcePoint"/>
                        <mxPoint x="610" y="428.75" as="targetPoint"/>
                    </mxGeometry>
                </mxCell>
                <mxCell id="18" value="" style="ellipse;whiteSpace=wrap;html=1;aspect=fixed;fillStyle=auto;gradientDirection=south;strokeColor=#000000;fillColor=none;" parent="1" vertex="1">
                    <mxGeometry x="560" y="428.75" width="10" height="10" as="geometry"/>
                </mxCell>
                <mxCell id="19" value="" style="endArrow=none;html=1;rounded=0;exitX=1;exitY=0.25;exitDx=0;exitDy=0;entryX=0;entryY=0.5;entryDx=0;entryDy=0;strokeColor=#000000;" parent="1" source="7" target="18" edge="1">
                    <mxGeometry relative="1" as="geometry">
                        <mxPoint x="530" y="481.09" as="sourcePoint"/>
                        <mxPoint x="608.3" y="458.75" as="targetPoint"/>
                    </mxGeometry>
                </mxCell>
                <mxCell id="20" value="" style="ellipse;whiteSpace=wrap;html=1;aspect=fixed;fillStyle=auto;gradientDirection=south;strokeColor=#000000;fillColor=none;" parent="1" vertex="1">
                    <mxGeometry x="560" y="448.75" width="10" height="10" as="geometry"/>
                </mxCell>
                <mxCell id="21" value="" style="endArrow=none;html=1;rounded=0;exitX=1;exitY=0.25;exitDx=0;exitDy=0;entryX=0;entryY=0.5;entryDx=0;entryDy=0;strokeColor=#000000;" parent="1" source="7" target="20" edge="1">
                    <mxGeometry relative="1" as="geometry">
                        <mxPoint x="530" y="511.09" as="sourcePoint"/>
                        <mxPoint x="608.3" y="488.75" as="targetPoint"/>
                    </mxGeometry>
                </mxCell>
                <mxCell id="22" value="" style="ellipse;whiteSpace=wrap;html=1;aspect=fixed;fillStyle=auto;gradientDirection=south;strokeColor=#000000;fillColor=none;" parent="1" vertex="1">
                    <mxGeometry x="560" y="468.75" width="10" height="10" as="geometry"/>
                </mxCell>
                <mxCell id="23" value="" style="endArrow=none;html=1;rounded=0;exitX=1;exitY=0.25;exitDx=0;exitDy=0;entryX=0;entryY=0.5;entryDx=0;entryDy=0;strokeColor=#000000;" parent="1" source="7" target="22" edge="1">
                    <mxGeometry relative="1" as="geometry">
                        <mxPoint x="530" y="541.0899999999999" as="sourcePoint"/>
                        <mxPoint x="608.3" y="518.75" as="targetPoint"/>
                    </mxGeometry>
                </mxCell>
                <mxCell id="24" value="" style="ellipse;whiteSpace=wrap;html=1;aspect=fixed;fillStyle=auto;gradientDirection=south;strokeColor=#000000;fillColor=none;" parent="1" vertex="1">
                    <mxGeometry x="560" y="488.75" width="10" height="10" as="geometry"/>
                </mxCell>
                <mxCell id="25" value="" style="endArrow=none;html=1;rounded=0;exitX=1;exitY=0.25;exitDx=0;exitDy=0;entryX=0;entryY=0.5;entryDx=0;entryDy=0;strokeColor=#000000;" parent="1" source="7" target="24" edge="1">
                    <mxGeometry relative="1" as="geometry">
                        <mxPoint x="530" y="571.0899999999999" as="sourcePoint"/>
                        <mxPoint x="608.3" y="548.75" as="targetPoint"/>
                    </mxGeometry>
                </mxCell>
                <mxCell id="34" value="idUsuario" style="text;html=1;strokeColor=none;fillColor=none;align=center;verticalAlign=middle;whiteSpace=wrap;rounded=0;fillStyle=auto;strokeWidth=1;fontSize=9;container=0;movable=1;resizable=1;rotatable=1;deletable=1;editable=1;connectable=1;" parent="1" vertex="1">
                    <mxGeometry x="570" y="408.75" width="60" height="10" as="geometry"/>
                </mxCell>
                <mxCell id="37" value="nombre" style="text;html=1;strokeColor=none;fillColor=none;align=center;verticalAlign=middle;whiteSpace=wrap;rounded=0;fillStyle=auto;strokeWidth=1;fontSize=9;" parent="1" vertex="1">
                    <mxGeometry x="570" y="428.75" width="60" height="10" as="geometry"/>
                </mxCell>
                <mxCell id="38" value="apellido" style="text;html=1;strokeColor=none;fillColor=none;align=center;verticalAlign=middle;whiteSpace=wrap;rounded=0;fillStyle=auto;strokeWidth=1;fontSize=9;" parent="1" vertex="1">
                    <mxGeometry x="570" y="448.75" width="60" height="10" as="geometry"/>
                </mxCell>
                <mxCell id="39" value="cedula" style="text;html=1;strokeColor=none;fillColor=none;align=center;verticalAlign=middle;whiteSpace=wrap;rounded=0;fillStyle=auto;strokeWidth=1;fontSize=9;" parent="1" vertex="1">
                    <mxGeometry x="570" y="468.75" width="60" height="10" as="geometry"/>
                </mxCell>
                <mxCell id="40" value="direccion" style="text;html=1;strokeColor=none;fillColor=none;align=center;verticalAlign=middle;whiteSpace=wrap;rounded=0;fillStyle=auto;strokeWidth=1;fontSize=9;" parent="1" vertex="1">
                    <mxGeometry x="570" y="488.75" width="60" height="10" as="geometry"/>
                </mxCell>
                <mxCell id="41" value="" style="ellipse;whiteSpace=wrap;html=1;aspect=fixed;fillStyle=auto;gradientDirection=south;strokeColor=#000000;fillColor=none;" parent="1" vertex="1">
                    <mxGeometry x="560" y="506.25" width="10" height="10" as="geometry"/>
                </mxCell>
                <mxCell id="42" value="" style="endArrow=none;html=1;rounded=0;exitX=1;exitY=0.25;exitDx=0;exitDy=0;entryX=0;entryY=0.5;entryDx=0;entryDy=0;strokeColor=#000000;" parent="1" source="7" target="41" edge="1">
                    <mxGeometry relative="1" as="geometry">
                        <mxPoint x="530" y="471.25" as="sourcePoint"/>
                        <mxPoint x="608.3" y="566.25" as="targetPoint"/>
                    </mxGeometry>
                </mxCell>
                <mxCell id="43" value="telefono" style="text;html=1;strokeColor=none;fillColor=none;align=center;verticalAlign=middle;whiteSpace=wrap;rounded=0;fillStyle=auto;strokeWidth=1;fontSize=9;" parent="1" vertex="1">
                    <mxGeometry x="570" y="506.25" width="60" height="10" as="geometry"/>
                </mxCell>
                <mxCell id="44" value="" style="ellipse;whiteSpace=wrap;html=1;aspect=fixed;fillStyle=auto;gradientDirection=south;strokeColor=#000000;fillColor=none;" parent="1" vertex="1">
                    <mxGeometry x="560" y="523.75" width="10" height="10" as="geometry"/>
                </mxCell>
                <mxCell id="45" value="" style="endArrow=none;html=1;rounded=0;exitX=1;exitY=0.25;exitDx=0;exitDy=0;entryX=0;entryY=0.5;entryDx=0;entryDy=0;strokeColor=#000000;" parent="1" source="7" target="44" edge="1">
                    <mxGeometry relative="1" as="geometry">
                        <mxPoint x="530" y="488.75" as="sourcePoint"/>
                        <mxPoint x="608.3" y="583.75" as="targetPoint"/>
                    </mxGeometry>
                </mxCell>
                <mxCell id="46" value="correo" style="text;html=1;strokeColor=none;fillColor=none;align=center;verticalAlign=middle;whiteSpace=wrap;rounded=0;fillStyle=auto;strokeWidth=1;fontSize=9;" parent="1" vertex="1">
                    <mxGeometry x="570" y="523.75" width="60" height="10" as="geometry"/>
                </mxCell>
                <mxCell id="47" value="" style="ellipse;whiteSpace=wrap;html=1;aspect=fixed;fillStyle=auto;gradientDirection=south;strokeColor=#000000;fillColor=none;" parent="1" vertex="1">
                    <mxGeometry x="560" y="541.25" width="10" height="10" as="geometry"/>
                </mxCell>
                <mxCell id="48" value="" style="endArrow=none;html=1;rounded=0;exitX=1;exitY=0.25;exitDx=0;exitDy=0;entryX=0;entryY=0.5;entryDx=0;entryDy=0;strokeColor=#000000;" parent="1" source="7" target="47" edge="1">
                    <mxGeometry relative="1" as="geometry">
                        <mxPoint x="530" y="506.25" as="sourcePoint"/>
                        <mxPoint x="608.3" y="601.25" as="targetPoint"/>
                    </mxGeometry>
                </mxCell>
                <mxCell id="49" value="nickName" style="text;html=1;strokeColor=none;fillColor=none;align=center;verticalAlign=middle;whiteSpace=wrap;rounded=0;fillStyle=auto;strokeWidth=1;fontSize=9;" parent="1" vertex="1">
                    <mxGeometry x="568.3" y="541.25" width="60" height="10" as="geometry"/>
                </mxCell>
                <mxCell id="77" value="Suscripciones" style="whiteSpace=wrap;html=1;align=center;fillStyle=auto;strokeColor=#000000;fillColor=none;gradientColor=none;gradientDirection=south;" parent="1" vertex="1">
                    <mxGeometry x="1330" y="86.25" width="100" height="20" as="geometry"/>
                </mxCell>
                <mxCell id="78" style="edgeStyle=none;html=1;exitX=0;exitY=1;exitDx=0;exitDy=0;strokeColor=#000000;fontSize=9;" parent="1" source="79" edge="1">
                    <mxGeometry relative="1" as="geometry">
                        <mxPoint x="1461.3333333333335" y="54.916666666666686" as="targetPoint"/>
                    </mxGeometry>
                </mxCell>
                <mxCell id="79" value="" style="ellipse;whiteSpace=wrap;html=1;aspect=fixed;fillStyle=auto;gradientDirection=south;strokeColor=#000000;fillColor=#000000;" parent="1" vertex="1">
                    <mxGeometry x="1460" y="46.25" width="10" height="10" as="geometry"/>
                </mxCell>
                <mxCell id="80" value="" style="endArrow=none;html=1;rounded=0;exitX=1;exitY=0.25;exitDx=0;exitDy=0;entryX=0;entryY=0.5;entryDx=0;entryDy=0;strokeColor=#000000;" parent="1" source="77" target="79" edge="1">
                    <mxGeometry relative="1" as="geometry">
                        <mxPoint x="1350" y="66.25" as="sourcePoint"/>
                        <mxPoint x="1510" y="66.25" as="targetPoint"/>
                    </mxGeometry>
                </mxCell>
                <mxCell id="81" value="" style="ellipse;whiteSpace=wrap;html=1;aspect=fixed;fillStyle=auto;gradientDirection=west;strokeColor=#000000;fillColor=default;gradientColor=default;" parent="1" vertex="1">
                    <mxGeometry x="1460" y="66.25" width="10" height="10" as="geometry"/>
                </mxCell>
                <mxCell id="82" value="" style="endArrow=none;html=1;rounded=0;exitX=1;exitY=0.25;exitDx=0;exitDy=0;entryX=0;entryY=0.5;entryDx=0;entryDy=0;strokeColor=#000000;" parent="1" source="77" target="81" edge="1">
                    <mxGeometry relative="1" as="geometry">
                        <mxPoint x="1430" y="118.58999999999997" as="sourcePoint"/>
                        <mxPoint x="1508.3" y="96.25" as="targetPoint"/>
                    </mxGeometry>
                </mxCell>
                <mxCell id="83" value="" style="ellipse;whiteSpace=wrap;html=1;aspect=fixed;fillStyle=auto;gradientDirection=south;strokeColor=#000000;fillColor=none;" parent="1" vertex="1">
                    <mxGeometry x="1460" y="86.25" width="10" height="10" as="geometry"/>
                </mxCell>
                <mxCell id="84" value="" style="endArrow=none;html=1;rounded=0;exitX=1;exitY=0.25;exitDx=0;exitDy=0;entryX=0;entryY=0.5;entryDx=0;entryDy=0;strokeColor=#000000;" parent="1" source="77" target="83" edge="1">
                    <mxGeometry relative="1" as="geometry">
                        <mxPoint x="1430" y="148.58999999999997" as="sourcePoint"/>
                        <mxPoint x="1508.3" y="126.25" as="targetPoint"/>
                    </mxGeometry>
                </mxCell>
                <mxCell id="85" value="" style="ellipse;whiteSpace=wrap;html=1;aspect=fixed;fillStyle=auto;gradientDirection=south;strokeColor=#000000;fillColor=none;" parent="1" vertex="1">
                    <mxGeometry x="1460" y="106.25" width="10" height="10" as="geometry"/>
                </mxCell>
                <mxCell id="86" value="" style="endArrow=none;html=1;rounded=0;exitX=1;exitY=0.25;exitDx=0;exitDy=0;entryX=0;entryY=0.5;entryDx=0;entryDy=0;strokeColor=#000000;" parent="1" source="77" target="85" edge="1">
                    <mxGeometry relative="1" as="geometry">
                        <mxPoint x="1430" y="178.58999999999997" as="sourcePoint"/>
                        <mxPoint x="1508.3" y="156.25" as="targetPoint"/>
                    </mxGeometry>
                </mxCell>
                <mxCell id="87" value="" style="ellipse;whiteSpace=wrap;html=1;aspect=fixed;fillStyle=auto;gradientDirection=south;strokeColor=#000000;fillColor=none;" parent="1" vertex="1">
                    <mxGeometry x="1460" y="126.25" width="10" height="10" as="geometry"/>
                </mxCell>
                <mxCell id="88" value="" style="endArrow=none;html=1;rounded=0;exitX=1;exitY=0.25;exitDx=0;exitDy=0;entryX=0;entryY=0.5;entryDx=0;entryDy=0;strokeColor=#000000;" parent="1" source="77" target="87" edge="1">
                    <mxGeometry relative="1" as="geometry">
                        <mxPoint x="1430" y="208.58999999999997" as="sourcePoint"/>
                        <mxPoint x="1508.3" y="186.25" as="targetPoint"/>
                    </mxGeometry>
                </mxCell>
                <mxCell id="89" value="idSuscripcion" style="text;html=1;strokeColor=none;fillColor=none;align=center;verticalAlign=middle;whiteSpace=wrap;rounded=0;fillStyle=auto;strokeWidth=1;fontSize=9;container=0;movable=1;resizable=1;rotatable=1;deletable=1;editable=1;connectable=1;" parent="1" vertex="1">
                    <mxGeometry x="1480" y="46.25" width="60" height="10" as="geometry"/>
                </mxCell>
                <mxCell id="90" value="idUsuario" style="text;html=1;strokeColor=none;fillColor=none;align=center;verticalAlign=middle;whiteSpace=wrap;rounded=0;fillStyle=auto;strokeWidth=1;fontSize=9;" parent="1" vertex="1">
                    <mxGeometry x="1480" y="66.25" width="60" height="10" as="geometry"/>
                </mxCell>
                <mxCell id="91" value="TipoSuscripcion" style="text;html=1;strokeColor=none;fillColor=none;align=center;verticalAlign=middle;whiteSpace=wrap;rounded=0;fillStyle=auto;strokeWidth=1;fontSize=9;" parent="1" vertex="1">
                    <mxGeometry x="1480" y="86.25" width="60" height="10" as="geometry"/>
                </mxCell>
                <mxCell id="92" value="fechaInicio" style="text;html=1;strokeColor=none;fillColor=none;align=center;verticalAlign=middle;whiteSpace=wrap;rounded=0;fillStyle=auto;strokeWidth=1;fontSize=9;" parent="1" vertex="1">
                    <mxGeometry x="1480" y="106.25" width="60" height="10" as="geometry"/>
                </mxCell>
                <mxCell id="93" value="fechafin" style="text;html=1;strokeColor=none;fillColor=none;align=center;verticalAlign=middle;whiteSpace=wrap;rounded=0;fillStyle=auto;strokeWidth=1;fontSize=9;" parent="1" vertex="1">
                    <mxGeometry x="1480" y="126.25" width="60" height="10" as="geometry"/>
                </mxCell>
                <mxCell id="94" value="" style="ellipse;whiteSpace=wrap;html=1;aspect=fixed;fillStyle=auto;gradientDirection=south;strokeColor=#000000;fillColor=none;" parent="1" vertex="1">
                    <mxGeometry x="1460" y="143.75" width="10" height="10" as="geometry"/>
                </mxCell>
                <mxCell id="95" value="" style="endArrow=none;html=1;rounded=0;exitX=1;exitY=0.25;exitDx=0;exitDy=0;entryX=0;entryY=0.5;entryDx=0;entryDy=0;strokeColor=#000000;" parent="1" source="77" target="94" edge="1">
                    <mxGeometry relative="1" as="geometry">
                        <mxPoint x="1430" y="108.75" as="sourcePoint"/>
                        <mxPoint x="1508.3" y="203.75" as="targetPoint"/>
                    </mxGeometry>
                </mxCell>
                <mxCell id="96" value="estado" style="text;html=1;strokeColor=none;fillColor=none;align=center;verticalAlign=middle;whiteSpace=wrap;rounded=0;fillStyle=auto;strokeWidth=1;fontSize=9;" parent="1" vertex="1">
                    <mxGeometry x="1480" y="143.75" width="60" height="10" as="geometry"/>
                </mxCell>
                <mxCell id="723" style="edgeStyle=orthogonalEdgeStyle;rounded=0;html=1;exitX=0.75;exitY=1;exitDx=0;exitDy=0;entryX=0;entryY=0.5;entryDx=0;entryDy=0;strokeColor=#FF33FF;endArrow=none;endFill=0;" edge="1" parent="1" source="103" target="565">
                    <mxGeometry relative="1" as="geometry"/>
                </mxCell>
                <mxCell id="725" value="1" style="edgeLabel;html=1;align=center;verticalAlign=middle;resizable=0;points=[];" vertex="1" connectable="0" parent="723">
                    <mxGeometry x="-0.9409" relative="1" as="geometry">
                        <mxPoint x="5" y="1" as="offset"/>
                    </mxGeometry>
                </mxCell>
                <mxCell id="103" value="Carritos" style="whiteSpace=wrap;html=1;align=center;fillStyle=auto;strokeColor=#FF33FF;fillColor=none;gradientColor=none;gradientDirection=south;" parent="1" vertex="1">
                    <mxGeometry x="219.99999999999994" y="654.16" width="100" height="20" as="geometry"/>
                </mxCell>
                <mxCell id="104" style="edgeStyle=none;html=1;exitX=0;exitY=1;exitDx=0;exitDy=0;strokeColor=#000000;fontSize=9;" parent="1" source="105" edge="1">
                    <mxGeometry relative="1" as="geometry">
                        <mxPoint x="351.3333333333332" y="622.8266666666667" as="targetPoint"/>
                    </mxGeometry>
                </mxCell>
                <mxCell id="105" value="" style="ellipse;whiteSpace=wrap;html=1;aspect=fixed;fillStyle=auto;gradientDirection=south;strokeColor=#000000;fillColor=#000000;" parent="1" vertex="1">
                    <mxGeometry x="349.99999999999994" y="614.16" width="10" height="10" as="geometry"/>
                </mxCell>
                <mxCell id="106" value="" style="endArrow=none;html=1;rounded=0;exitX=1;exitY=0.25;exitDx=0;exitDy=0;entryX=0;entryY=0.5;entryDx=0;entryDy=0;strokeColor=#000000;" parent="1" source="103" target="105" edge="1">
                    <mxGeometry relative="1" as="geometry">
                        <mxPoint x="239.99999999999994" y="634.16" as="sourcePoint"/>
                        <mxPoint x="399.99999999999994" y="634.16" as="targetPoint"/>
                    </mxGeometry>
                </mxCell>
                <mxCell id="107" value="" style="ellipse;whiteSpace=wrap;html=1;aspect=fixed;fillStyle=auto;gradientDirection=west;strokeColor=#000000;fillColor=default;gradientColor=default;" parent="1" vertex="1">
                    <mxGeometry x="349.99999999999994" y="634.16" width="10" height="10" as="geometry"/>
                </mxCell>
                <mxCell id="108" value="" style="endArrow=none;html=1;rounded=0;exitX=1;exitY=0.25;exitDx=0;exitDy=0;entryX=0;entryY=0.5;entryDx=0;entryDy=0;strokeColor=#000000;" parent="1" source="103" target="107" edge="1">
                    <mxGeometry relative="1" as="geometry">
                        <mxPoint x="319.99999999999994" y="686.4999999999999" as="sourcePoint"/>
                        <mxPoint x="398.2999999999999" y="664.16" as="targetPoint"/>
                    </mxGeometry>
                </mxCell>
                <mxCell id="109" value="" style="ellipse;whiteSpace=wrap;html=1;aspect=fixed;fillStyle=auto;gradientDirection=south;strokeColor=#000000;fillColor=none;" parent="1" vertex="1">
                    <mxGeometry x="349.99999999999994" y="654.16" width="10" height="10" as="geometry"/>
                </mxCell>
                <mxCell id="110" value="" style="endArrow=none;html=1;rounded=0;exitX=1;exitY=0.25;exitDx=0;exitDy=0;entryX=0;entryY=0.5;entryDx=0;entryDy=0;strokeColor=#000000;" parent="1" source="103" target="109" edge="1">
                    <mxGeometry relative="1" as="geometry">
                        <mxPoint x="319.99999999999994" y="716.4999999999999" as="sourcePoint"/>
                        <mxPoint x="398.2999999999999" y="694.16" as="targetPoint"/>
                    </mxGeometry>
                </mxCell>
                <mxCell id="111" value="" style="ellipse;whiteSpace=wrap;html=1;aspect=fixed;fillStyle=auto;gradientDirection=south;strokeColor=#000000;fillColor=none;" parent="1" vertex="1">
                    <mxGeometry x="349.99999999999994" y="674.16" width="10" height="10" as="geometry"/>
                </mxCell>
                <mxCell id="112" value="" style="endArrow=none;html=1;rounded=0;exitX=1;exitY=0.25;exitDx=0;exitDy=0;entryX=0;entryY=0.5;entryDx=0;entryDy=0;strokeColor=#000000;" parent="1" source="103" target="111" edge="1">
                    <mxGeometry relative="1" as="geometry">
                        <mxPoint x="319.99999999999994" y="746.4999999999999" as="sourcePoint"/>
                        <mxPoint x="398.2999999999999" y="724.16" as="targetPoint"/>
                    </mxGeometry>
                </mxCell>
                <mxCell id="113" value="" style="ellipse;whiteSpace=wrap;html=1;aspect=fixed;fillStyle=auto;gradientDirection=south;strokeColor=#000000;fillColor=none;" parent="1" vertex="1">
                    <mxGeometry x="349.99999999999994" y="694.16" width="10" height="10" as="geometry"/>
                </mxCell>
                <mxCell id="114" value="" style="endArrow=none;html=1;rounded=0;exitX=1;exitY=0.25;exitDx=0;exitDy=0;entryX=0;entryY=0.5;entryDx=0;entryDy=0;strokeColor=#000000;" parent="1" source="103" target="113" edge="1">
                    <mxGeometry relative="1" as="geometry">
                        <mxPoint x="319.99999999999994" y="776.4999999999999" as="sourcePoint"/>
                        <mxPoint x="398.2999999999999" y="754.16" as="targetPoint"/>
                    </mxGeometry>
                </mxCell>
                <mxCell id="129" value="DetalleCarritos" style="whiteSpace=wrap;html=1;align=center;fillStyle=auto;strokeColor=#000000;fillColor=none;gradientColor=none;gradientDirection=south;" parent="1" vertex="1">
                    <mxGeometry x="1300" y="270" width="100" height="20" as="geometry"/>
                </mxCell>
                <mxCell id="130" style="edgeStyle=none;html=1;exitX=0;exitY=1;exitDx=0;exitDy=0;strokeColor=#000000;fontSize=9;" parent="1" source="131" edge="1">
                    <mxGeometry relative="1" as="geometry">
                        <mxPoint x="1431.3333333333333" y="238.66666666666674" as="targetPoint"/>
                    </mxGeometry>
                </mxCell>
                <mxCell id="131" value="" style="ellipse;whiteSpace=wrap;html=1;aspect=fixed;fillStyle=auto;gradientDirection=south;strokeColor=#000000;fillColor=#000000;" parent="1" vertex="1">
                    <mxGeometry x="1430" y="230" width="10" height="10" as="geometry"/>
                </mxCell>
                <mxCell id="132" value="" style="endArrow=none;html=1;rounded=0;exitX=1;exitY=0.25;exitDx=0;exitDy=0;entryX=0;entryY=0.5;entryDx=0;entryDy=0;strokeColor=#000000;" parent="1" source="129" target="131" edge="1">
                    <mxGeometry relative="1" as="geometry">
                        <mxPoint x="1320" y="250" as="sourcePoint"/>
                        <mxPoint x="1480" y="250" as="targetPoint"/>
                    </mxGeometry>
                </mxCell>
                <mxCell id="133" value="" style="ellipse;whiteSpace=wrap;html=1;aspect=fixed;fillStyle=auto;gradientDirection=west;strokeColor=#000000;fillColor=default;gradientColor=default;" parent="1" vertex="1">
                    <mxGeometry x="1430" y="250" width="10" height="10" as="geometry"/>
                </mxCell>
                <mxCell id="134" value="" style="endArrow=none;html=1;rounded=0;exitX=1;exitY=0.25;exitDx=0;exitDy=0;entryX=0;entryY=0.5;entryDx=0;entryDy=0;strokeColor=#000000;" parent="1" source="129" target="133" edge="1">
                    <mxGeometry relative="1" as="geometry">
                        <mxPoint x="1400" y="302.34" as="sourcePoint"/>
                        <mxPoint x="1478.3" y="280" as="targetPoint"/>
                    </mxGeometry>
                </mxCell>
                <mxCell id="135" value="" style="ellipse;whiteSpace=wrap;html=1;aspect=fixed;fillStyle=auto;gradientDirection=west;strokeColor=#000000;fillColor=default;gradientColor=default;" parent="1" vertex="1">
                    <mxGeometry x="1430" y="270" width="10" height="10" as="geometry"/>
                </mxCell>
                <mxCell id="136" value="" style="endArrow=none;html=1;rounded=0;exitX=1;exitY=0.25;exitDx=0;exitDy=0;entryX=0;entryY=0.5;entryDx=0;entryDy=0;strokeColor=#000000;" parent="1" source="129" target="135" edge="1">
                    <mxGeometry relative="1" as="geometry">
                        <mxPoint x="1400" y="332.34" as="sourcePoint"/>
                        <mxPoint x="1478.3" y="310" as="targetPoint"/>
                    </mxGeometry>
                </mxCell>
                <mxCell id="137" value="" style="ellipse;whiteSpace=wrap;html=1;aspect=fixed;fillStyle=auto;gradientDirection=south;strokeColor=#000000;fillColor=none;" parent="1" vertex="1">
                    <mxGeometry x="1430" y="290" width="10" height="10" as="geometry"/>
                </mxCell>
                <mxCell id="138" value="" style="endArrow=none;html=1;rounded=0;exitX=1;exitY=0.25;exitDx=0;exitDy=0;entryX=0;entryY=0.5;entryDx=0;entryDy=0;strokeColor=#000000;" parent="1" source="129" target="137" edge="1">
                    <mxGeometry relative="1" as="geometry">
                        <mxPoint x="1400" y="362.34" as="sourcePoint"/>
                        <mxPoint x="1478.3" y="340" as="targetPoint"/>
                    </mxGeometry>
                </mxCell>
                <mxCell id="139" value="" style="ellipse;whiteSpace=wrap;html=1;aspect=fixed;fillStyle=auto;gradientDirection=south;strokeColor=#000000;fillColor=none;" parent="1" vertex="1">
                    <mxGeometry x="1430" y="310" width="10" height="10" as="geometry"/>
                </mxCell>
                <mxCell id="140" value="" style="endArrow=none;html=1;rounded=0;exitX=1;exitY=0.25;exitDx=0;exitDy=0;entryX=0;entryY=0.5;entryDx=0;entryDy=0;strokeColor=#000000;" parent="1" source="129" target="139" edge="1">
                    <mxGeometry relative="1" as="geometry">
                        <mxPoint x="1400" y="392.34" as="sourcePoint"/>
                        <mxPoint x="1478.3" y="370" as="targetPoint"/>
                    </mxGeometry>
                </mxCell>
                <mxCell id="141" value="idDetalleCarrito" style="text;html=1;strokeColor=none;fillColor=none;align=center;verticalAlign=middle;whiteSpace=wrap;rounded=0;fillStyle=auto;strokeWidth=1;fontSize=9;container=0;movable=1;resizable=1;rotatable=1;deletable=1;editable=1;connectable=1;" parent="1" vertex="1">
                    <mxGeometry x="1440" y="230" width="60" height="10" as="geometry"/>
                </mxCell>
                <mxCell id="142" value="idCarrito" style="text;html=1;strokeColor=none;fillColor=none;align=center;verticalAlign=middle;whiteSpace=wrap;rounded=0;fillStyle=auto;strokeWidth=1;fontSize=9;" parent="1" vertex="1">
                    <mxGeometry x="1440" y="250" width="60" height="10" as="geometry"/>
                </mxCell>
                <mxCell id="143" value="idProducto" style="text;html=1;strokeColor=none;fillColor=none;align=center;verticalAlign=middle;whiteSpace=wrap;rounded=0;fillStyle=auto;strokeWidth=1;fontSize=9;" parent="1" vertex="1">
                    <mxGeometry x="1440" y="270" width="60" height="10" as="geometry"/>
                </mxCell>
                <mxCell id="144" value="cantidad" style="text;html=1;strokeColor=none;fillColor=none;align=center;verticalAlign=middle;whiteSpace=wrap;rounded=0;fillStyle=auto;strokeWidth=1;fontSize=9;" parent="1" vertex="1">
                    <mxGeometry x="1440" y="290" width="60" height="10" as="geometry"/>
                </mxCell>
                <mxCell id="145" value="precioUnitario" style="text;html=1;strokeColor=none;fillColor=none;align=center;verticalAlign=middle;whiteSpace=wrap;rounded=0;fillStyle=auto;strokeWidth=1;fontSize=9;" parent="1" vertex="1">
                    <mxGeometry x="1440" y="310" width="60" height="10" as="geometry"/>
                </mxCell>
                <mxCell id="146" value="" style="ellipse;whiteSpace=wrap;html=1;aspect=fixed;fillStyle=auto;gradientDirection=south;strokeColor=#000000;fillColor=none;" parent="1" vertex="1">
                    <mxGeometry x="1430" y="327.5" width="10" height="10" as="geometry"/>
                </mxCell>
                <mxCell id="147" value="" style="endArrow=none;html=1;rounded=0;exitX=1;exitY=0.25;exitDx=0;exitDy=0;entryX=0;entryY=0.5;entryDx=0;entryDy=0;strokeColor=#000000;" parent="1" source="129" target="146" edge="1">
                    <mxGeometry relative="1" as="geometry">
                        <mxPoint x="1400" y="292.5" as="sourcePoint"/>
                        <mxPoint x="1478.3" y="387.5" as="targetPoint"/>
                    </mxGeometry>
                </mxCell>
                <mxCell id="148" value="subtotal" style="text;html=1;strokeColor=none;fillColor=none;align=center;verticalAlign=middle;whiteSpace=wrap;rounded=0;fillStyle=auto;strokeWidth=1;fontSize=9;" parent="1" vertex="1">
                    <mxGeometry x="1440" y="327.5" width="60" height="10" as="geometry"/>
                </mxCell>
                <mxCell id="199" value="Notificaciones" style="whiteSpace=wrap;html=1;align=center;fillStyle=auto;strokeColor=#000000;fillColor=none;gradientColor=none;gradientDirection=south;" parent="1" vertex="1">
                    <mxGeometry x="30" y="1530" width="100" height="20" as="geometry"/>
                </mxCell>
                <mxCell id="200" style="edgeStyle=none;html=1;exitX=0;exitY=1;exitDx=0;exitDy=0;strokeColor=#000000;fontSize=9;" parent="1" source="201" edge="1">
                    <mxGeometry relative="1" as="geometry">
                        <mxPoint x="161.33333333333326" y="1498.6666666666667" as="targetPoint"/>
                    </mxGeometry>
                </mxCell>
                <mxCell id="201" value="" style="ellipse;whiteSpace=wrap;html=1;aspect=fixed;fillStyle=auto;gradientDirection=south;strokeColor=#000000;fillColor=#000000;" parent="1" vertex="1">
                    <mxGeometry x="160" y="1490" width="10" height="10" as="geometry"/>
                </mxCell>
                <mxCell id="202" value="" style="endArrow=none;html=1;rounded=0;exitX=1;exitY=0.25;exitDx=0;exitDy=0;entryX=0;entryY=0.5;entryDx=0;entryDy=0;strokeColor=#000000;" parent="1" source="199" target="201" edge="1">
                    <mxGeometry relative="1" as="geometry">
                        <mxPoint x="50" y="1510" as="sourcePoint"/>
                        <mxPoint x="210" y="1510" as="targetPoint"/>
                    </mxGeometry>
                </mxCell>
                <mxCell id="203" value="" style="ellipse;whiteSpace=wrap;html=1;aspect=fixed;fillStyle=auto;gradientDirection=west;strokeColor=#000000;fillColor=default;gradientColor=default;" parent="1" vertex="1">
                    <mxGeometry x="160" y="1510" width="10" height="10" as="geometry"/>
                </mxCell>
                <mxCell id="204" value="" style="endArrow=none;html=1;rounded=0;exitX=1;exitY=0.25;exitDx=0;exitDy=0;entryX=0;entryY=0.5;entryDx=0;entryDy=0;strokeColor=#000000;" parent="1" source="199" target="203" edge="1">
                    <mxGeometry relative="1" as="geometry">
                        <mxPoint x="130" y="1562.34" as="sourcePoint"/>
                        <mxPoint x="208.29999999999995" y="1540" as="targetPoint"/>
                    </mxGeometry>
                </mxCell>
                <mxCell id="205" value="" style="ellipse;whiteSpace=wrap;html=1;aspect=fixed;fillStyle=auto;gradientDirection=south;strokeColor=#000000;fillColor=none;" parent="1" vertex="1">
                    <mxGeometry x="160" y="1530" width="10" height="10" as="geometry"/>
                </mxCell>
                <mxCell id="206" value="" style="endArrow=none;html=1;rounded=0;exitX=1;exitY=0.25;exitDx=0;exitDy=0;entryX=0;entryY=0.5;entryDx=0;entryDy=0;strokeColor=#000000;" parent="1" source="199" target="205" edge="1">
                    <mxGeometry relative="1" as="geometry">
                        <mxPoint x="130" y="1592.34" as="sourcePoint"/>
                        <mxPoint x="208.29999999999995" y="1570" as="targetPoint"/>
                    </mxGeometry>
                </mxCell>
                <mxCell id="207" value="" style="ellipse;whiteSpace=wrap;html=1;aspect=fixed;fillStyle=auto;gradientDirection=south;strokeColor=#000000;fillColor=none;" parent="1" vertex="1">
                    <mxGeometry x="160" y="1550" width="10" height="10" as="geometry"/>
                </mxCell>
                <mxCell id="208" value="" style="endArrow=none;html=1;rounded=0;exitX=1;exitY=0.25;exitDx=0;exitDy=0;entryX=0;entryY=0.5;entryDx=0;entryDy=0;strokeColor=#000000;" parent="1" source="199" target="207" edge="1">
                    <mxGeometry relative="1" as="geometry">
                        <mxPoint x="130" y="1622.34" as="sourcePoint"/>
                        <mxPoint x="208.29999999999995" y="1600" as="targetPoint"/>
                    </mxGeometry>
                </mxCell>
                <mxCell id="209" value="" style="ellipse;whiteSpace=wrap;html=1;aspect=fixed;fillStyle=auto;gradientDirection=south;strokeColor=#000000;fillColor=none;" parent="1" vertex="1">
                    <mxGeometry x="160" y="1570" width="10" height="10" as="geometry"/>
                </mxCell>
                <mxCell id="210" value="" style="endArrow=none;html=1;rounded=0;exitX=1;exitY=0.25;exitDx=0;exitDy=0;entryX=0;entryY=0.5;entryDx=0;entryDy=0;strokeColor=#000000;" parent="1" source="199" target="209" edge="1">
                    <mxGeometry relative="1" as="geometry">
                        <mxPoint x="130" y="1652.34" as="sourcePoint"/>
                        <mxPoint x="208.29999999999995" y="1630" as="targetPoint"/>
                    </mxGeometry>
                </mxCell>
                <mxCell id="211" value="idNotificacion" style="text;html=1;strokeColor=none;fillColor=none;align=center;verticalAlign=middle;whiteSpace=wrap;rounded=0;fillStyle=auto;strokeWidth=1;fontSize=9;container=0;movable=1;resizable=1;rotatable=1;deletable=1;editable=1;connectable=1;" parent="1" vertex="1">
                    <mxGeometry x="180" y="1490" width="60" height="10" as="geometry"/>
                </mxCell>
                <mxCell id="212" value="idPedido" style="text;html=1;strokeColor=none;fillColor=none;align=center;verticalAlign=middle;whiteSpace=wrap;rounded=0;fillStyle=auto;strokeWidth=1;fontSize=9;" parent="1" vertex="1">
                    <mxGeometry x="180" y="1510" width="60" height="10" as="geometry"/>
                </mxCell>
                <mxCell id="213" value="fecha" style="text;html=1;strokeColor=none;fillColor=none;align=center;verticalAlign=middle;whiteSpace=wrap;rounded=0;fillStyle=auto;strokeWidth=1;fontSize=9;" parent="1" vertex="1">
                    <mxGeometry x="180" y="1530" width="60" height="10" as="geometry"/>
                </mxCell>
                <mxCell id="214" value="hora" style="text;html=1;strokeColor=none;fillColor=none;align=center;verticalAlign=middle;whiteSpace=wrap;rounded=0;fillStyle=auto;strokeWidth=1;fontSize=9;" parent="1" vertex="1">
                    <mxGeometry x="180" y="1550" width="60" height="10" as="geometry"/>
                </mxCell>
                <mxCell id="215" value="notificacionPedido" style="text;html=1;strokeColor=none;fillColor=none;align=center;verticalAlign=middle;whiteSpace=wrap;rounded=0;fillStyle=auto;strokeWidth=1;fontSize=9;" parent="1" vertex="1">
                    <mxGeometry x="180" y="1570" width="60" height="10" as="geometry"/>
                </mxCell>
                <mxCell id="251" value="FotosProductos" style="whiteSpace=wrap;html=1;align=center;fillStyle=auto;strokeColor=#000000;fillColor=none;gradientColor=none;gradientDirection=south;" parent="1" vertex="1">
                    <mxGeometry x="1300" y="440" width="100" height="20" as="geometry"/>
                </mxCell>
                <mxCell id="252" style="edgeStyle=none;html=1;exitX=0;exitY=1;exitDx=0;exitDy=0;strokeColor=#000000;fontSize=9;" parent="1" source="253" edge="1">
                    <mxGeometry relative="1" as="geometry">
                        <mxPoint x="1431.3333333333333" y="408.66666666666674" as="targetPoint"/>
                    </mxGeometry>
                </mxCell>
                <mxCell id="253" value="" style="ellipse;whiteSpace=wrap;html=1;aspect=fixed;fillStyle=auto;gradientDirection=south;strokeColor=#000000;fillColor=#000000;" parent="1" vertex="1">
                    <mxGeometry x="1430" y="400" width="10" height="10" as="geometry"/>
                </mxCell>
                <mxCell id="254" value="" style="endArrow=none;html=1;rounded=0;exitX=1;exitY=0.25;exitDx=0;exitDy=0;entryX=0;entryY=0.5;entryDx=0;entryDy=0;strokeColor=#000000;" parent="1" source="251" target="253" edge="1">
                    <mxGeometry relative="1" as="geometry">
                        <mxPoint x="1320" y="420" as="sourcePoint"/>
                        <mxPoint x="1480" y="420" as="targetPoint"/>
                    </mxGeometry>
                </mxCell>
                <mxCell id="255" value="" style="ellipse;whiteSpace=wrap;html=1;aspect=fixed;fillStyle=auto;gradientDirection=south;strokeColor=#000000;fillColor=none;" parent="1" vertex="1">
                    <mxGeometry x="1430" y="420" width="10" height="10" as="geometry"/>
                </mxCell>
                <mxCell id="256" value="" style="endArrow=none;html=1;rounded=0;exitX=1;exitY=0.25;exitDx=0;exitDy=0;entryX=0;entryY=0.5;entryDx=0;entryDy=0;strokeColor=#000000;" parent="1" source="251" target="255" edge="1">
                    <mxGeometry relative="1" as="geometry">
                        <mxPoint x="1400" y="472.34" as="sourcePoint"/>
                        <mxPoint x="1478.3" y="450" as="targetPoint"/>
                    </mxGeometry>
                </mxCell>
                <mxCell id="257" value="" style="ellipse;whiteSpace=wrap;html=1;aspect=fixed;fillStyle=auto;gradientDirection=south;strokeColor=#000000;fillColor=none;" parent="1" vertex="1">
                    <mxGeometry x="1430" y="440" width="10" height="10" as="geometry"/>
                </mxCell>
                <mxCell id="258" value="" style="endArrow=none;html=1;rounded=0;exitX=1;exitY=0.25;exitDx=0;exitDy=0;entryX=0;entryY=0.5;entryDx=0;entryDy=0;strokeColor=#000000;" parent="1" source="251" target="257" edge="1">
                    <mxGeometry relative="1" as="geometry">
                        <mxPoint x="1400" y="502.3399999999999" as="sourcePoint"/>
                        <mxPoint x="1478.3" y="480" as="targetPoint"/>
                    </mxGeometry>
                </mxCell>
                <mxCell id="259" value="" style="ellipse;whiteSpace=wrap;html=1;aspect=fixed;fillStyle=auto;gradientDirection=south;strokeColor=#000000;fillColor=none;" parent="1" vertex="1">
                    <mxGeometry x="1430" y="460" width="10" height="10" as="geometry"/>
                </mxCell>
                <mxCell id="260" value="" style="endArrow=none;html=1;rounded=0;exitX=1;exitY=0.25;exitDx=0;exitDy=0;entryX=0;entryY=0.5;entryDx=0;entryDy=0;strokeColor=#000000;" parent="1" source="251" target="259" edge="1">
                    <mxGeometry relative="1" as="geometry">
                        <mxPoint x="1400" y="532.3399999999999" as="sourcePoint"/>
                        <mxPoint x="1478.3" y="510" as="targetPoint"/>
                    </mxGeometry>
                </mxCell>
                <mxCell id="263" value="fotoProducto" style="text;html=1;strokeColor=none;fillColor=none;align=center;verticalAlign=middle;whiteSpace=wrap;rounded=0;fillStyle=auto;strokeWidth=1;fontSize=9;container=0;movable=1;resizable=1;rotatable=1;deletable=1;editable=1;connectable=1;" parent="1" vertex="1">
                    <mxGeometry x="1440" y="400" width="60" height="10" as="geometry"/>
                </mxCell>
                <mxCell id="264" value="idProducto" style="text;html=1;strokeColor=none;fillColor=none;align=center;verticalAlign=middle;whiteSpace=wrap;rounded=0;fillStyle=auto;strokeWidth=1;fontSize=9;" parent="1" vertex="1">
                    <mxGeometry x="1440" y="420" width="60" height="10" as="geometry"/>
                </mxCell>
                <mxCell id="265" value="urlFoto" style="text;html=1;strokeColor=none;fillColor=none;align=center;verticalAlign=middle;whiteSpace=wrap;rounded=0;fillStyle=auto;strokeWidth=1;fontSize=9;" parent="1" vertex="1">
                    <mxGeometry x="1440" y="440" width="60" height="10" as="geometry"/>
                </mxCell>
                <mxCell id="303" value="DetallesFacturas" style="whiteSpace=wrap;html=1;align=center;fillStyle=auto;strokeColor=#000000;fillColor=none;gradientColor=none;gradientDirection=south;" parent="1" vertex="1">
                    <mxGeometry x="1070" y="610" width="100" height="20" as="geometry"/>
                </mxCell>
                <mxCell id="304" style="edgeStyle=none;html=1;exitX=0;exitY=1;exitDx=0;exitDy=0;strokeColor=#000000;fontSize=9;" parent="1" source="305" edge="1">
                    <mxGeometry relative="1" as="geometry">
                        <mxPoint x="1201.3333333333333" y="578.6666666666667" as="targetPoint"/>
                    </mxGeometry>
                </mxCell>
                <mxCell id="305" value="" style="ellipse;whiteSpace=wrap;html=1;aspect=fixed;fillStyle=auto;gradientDirection=south;strokeColor=#000000;fillColor=#000000;" parent="1" vertex="1">
                    <mxGeometry x="1200" y="570" width="10" height="10" as="geometry"/>
                </mxCell>
                <mxCell id="306" value="" style="endArrow=none;html=1;rounded=0;exitX=1;exitY=0.25;exitDx=0;exitDy=0;entryX=0;entryY=0.5;entryDx=0;entryDy=0;strokeColor=#000000;" parent="1" source="303" target="305" edge="1">
                    <mxGeometry relative="1" as="geometry">
                        <mxPoint x="1090" y="590" as="sourcePoint"/>
                        <mxPoint x="1250" y="590" as="targetPoint"/>
                    </mxGeometry>
                </mxCell>
                <mxCell id="307" value="" style="ellipse;whiteSpace=wrap;html=1;aspect=fixed;fillStyle=auto;gradientDirection=west;strokeColor=#000000;fillColor=default;gradientColor=default;" parent="1" vertex="1">
                    <mxGeometry x="1200" y="590" width="10" height="10" as="geometry"/>
                </mxCell>
                <mxCell id="308" value="" style="endArrow=none;html=1;rounded=0;exitX=1;exitY=0.25;exitDx=0;exitDy=0;entryX=0;entryY=0.5;entryDx=0;entryDy=0;strokeColor=#000000;" parent="1" source="303" target="307" edge="1">
                    <mxGeometry relative="1" as="geometry">
                        <mxPoint x="1170" y="642.3399999999999" as="sourcePoint"/>
                        <mxPoint x="1248.3" y="620" as="targetPoint"/>
                    </mxGeometry>
                </mxCell>
                <mxCell id="309" value="" style="ellipse;whiteSpace=wrap;html=1;aspect=fixed;fillStyle=auto;gradientDirection=west;strokeColor=#000000;fillColor=default;gradientColor=default;" parent="1" vertex="1">
                    <mxGeometry x="1200" y="610" width="10" height="10" as="geometry"/>
                </mxCell>
                <mxCell id="310" value="" style="endArrow=none;html=1;rounded=0;exitX=1;exitY=0.25;exitDx=0;exitDy=0;entryX=0;entryY=0.5;entryDx=0;entryDy=0;strokeColor=#000000;" parent="1" source="303" target="309" edge="1">
                    <mxGeometry relative="1" as="geometry">
                        <mxPoint x="1170" y="672.3399999999999" as="sourcePoint"/>
                        <mxPoint x="1248.3" y="650" as="targetPoint"/>
                    </mxGeometry>
                </mxCell>
                <mxCell id="311" value="" style="ellipse;whiteSpace=wrap;html=1;aspect=fixed;fillStyle=auto;gradientDirection=south;strokeColor=#000000;fillColor=none;" parent="1" vertex="1">
                    <mxGeometry x="1200" y="630" width="10" height="10" as="geometry"/>
                </mxCell>
                <mxCell id="312" value="" style="endArrow=none;html=1;rounded=0;exitX=1;exitY=0.25;exitDx=0;exitDy=0;entryX=0;entryY=0.5;entryDx=0;entryDy=0;strokeColor=#000000;" parent="1" source="303" target="311" edge="1">
                    <mxGeometry relative="1" as="geometry">
                        <mxPoint x="1170" y="702.3399999999999" as="sourcePoint"/>
                        <mxPoint x="1248.3" y="680" as="targetPoint"/>
                    </mxGeometry>
                </mxCell>
                <mxCell id="313" value="" style="ellipse;whiteSpace=wrap;html=1;aspect=fixed;fillStyle=auto;gradientDirection=south;strokeColor=#000000;fillColor=none;" parent="1" vertex="1">
                    <mxGeometry x="1200" y="650" width="10" height="10" as="geometry"/>
                </mxCell>
                <mxCell id="314" value="" style="endArrow=none;html=1;rounded=0;exitX=1;exitY=0.25;exitDx=0;exitDy=0;entryX=0;entryY=0.5;entryDx=0;entryDy=0;strokeColor=#000000;" parent="1" source="303" target="313" edge="1">
                    <mxGeometry relative="1" as="geometry">
                        <mxPoint x="1170" y="732.3399999999999" as="sourcePoint"/>
                        <mxPoint x="1248.3" y="710" as="targetPoint"/>
                    </mxGeometry>
                </mxCell>
                <mxCell id="315" value="idDetalleFactura" style="text;html=1;strokeColor=none;fillColor=none;align=center;verticalAlign=middle;whiteSpace=wrap;rounded=0;fillStyle=auto;strokeWidth=1;fontSize=9;container=0;movable=1;resizable=1;rotatable=1;deletable=1;editable=1;connectable=1;" parent="1" vertex="1">
                    <mxGeometry x="1220" y="570" width="60" height="10" as="geometry"/>
                </mxCell>
                <mxCell id="316" value="idFactura" style="text;html=1;strokeColor=none;fillColor=none;align=center;verticalAlign=middle;whiteSpace=wrap;rounded=0;fillStyle=auto;strokeWidth=1;fontSize=9;" parent="1" vertex="1">
                    <mxGeometry x="1210" y="590" width="60" height="10" as="geometry"/>
                </mxCell>
                <mxCell id="317" value="idProducto" style="text;html=1;strokeColor=none;fillColor=none;align=center;verticalAlign=middle;whiteSpace=wrap;rounded=0;fillStyle=auto;strokeWidth=1;fontSize=9;" parent="1" vertex="1">
                    <mxGeometry x="1210" y="610" width="60" height="10" as="geometry"/>
                </mxCell>
                <mxCell id="318" value="cantidad" style="text;html=1;strokeColor=none;fillColor=none;align=center;verticalAlign=middle;whiteSpace=wrap;rounded=0;fillStyle=auto;strokeWidth=1;fontSize=9;" parent="1" vertex="1">
                    <mxGeometry x="1210" y="630" width="60" height="10" as="geometry"/>
                </mxCell>
                <mxCell id="319" value="precioUnitario" style="text;html=1;strokeColor=none;fillColor=none;align=center;verticalAlign=middle;whiteSpace=wrap;rounded=0;fillStyle=auto;strokeWidth=1;fontSize=9;" parent="1" vertex="1">
                    <mxGeometry x="1210" y="650" width="60" height="10" as="geometry"/>
                </mxCell>
                <mxCell id="320" value="" style="ellipse;whiteSpace=wrap;html=1;aspect=fixed;fillStyle=auto;gradientDirection=south;strokeColor=#000000;fillColor=none;" parent="1" vertex="1">
                    <mxGeometry x="1200" y="667.5" width="10" height="10" as="geometry"/>
                </mxCell>
                <mxCell id="321" value="" style="endArrow=none;html=1;rounded=0;exitX=1;exitY=0.25;exitDx=0;exitDy=0;entryX=0;entryY=0.5;entryDx=0;entryDy=0;strokeColor=#000000;" parent="1" source="303" target="320" edge="1">
                    <mxGeometry relative="1" as="geometry">
                        <mxPoint x="1170" y="632.5" as="sourcePoint"/>
                        <mxPoint x="1248.3" y="727.5" as="targetPoint"/>
                    </mxGeometry>
                </mxCell>
                <mxCell id="322" value="subtotal" style="text;html=1;strokeColor=none;fillColor=none;align=center;verticalAlign=middle;whiteSpace=wrap;rounded=0;fillStyle=auto;strokeWidth=1;fontSize=9;" parent="1" vertex="1">
                    <mxGeometry x="1210" y="667.5" width="60" height="10" as="geometry"/>
                </mxCell>
                <mxCell id="329" value="Facturas" style="whiteSpace=wrap;html=1;align=center;fillStyle=auto;strokeColor=#000000;fillColor=none;gradientColor=none;gradientDirection=south;" parent="1" vertex="1">
                    <mxGeometry x="30" y="1700" width="100" height="20" as="geometry"/>
                </mxCell>
                <mxCell id="330" style="edgeStyle=none;html=1;exitX=0;exitY=1;exitDx=0;exitDy=0;strokeColor=#000000;fontSize=9;" parent="1" source="331" edge="1">
                    <mxGeometry relative="1" as="geometry">
                        <mxPoint x="161.33333333333326" y="1668.6666666666667" as="targetPoint"/>
                    </mxGeometry>
                </mxCell>
                <mxCell id="331" value="" style="ellipse;whiteSpace=wrap;html=1;aspect=fixed;fillStyle=auto;gradientDirection=south;strokeColor=#000000;fillColor=#000000;" parent="1" vertex="1">
                    <mxGeometry x="160" y="1660" width="10" height="10" as="geometry"/>
                </mxCell>
                <mxCell id="332" value="" style="endArrow=none;html=1;rounded=0;exitX=1;exitY=0.25;exitDx=0;exitDy=0;entryX=0;entryY=0.5;entryDx=0;entryDy=0;strokeColor=#000000;" parent="1" source="329" target="331" edge="1">
                    <mxGeometry relative="1" as="geometry">
                        <mxPoint x="50" y="1680" as="sourcePoint"/>
                        <mxPoint x="210" y="1680" as="targetPoint"/>
                    </mxGeometry>
                </mxCell>
                <mxCell id="333" value="" style="ellipse;whiteSpace=wrap;html=1;aspect=fixed;fillStyle=auto;gradientDirection=west;strokeColor=#000000;fillColor=default;gradientColor=default;" parent="1" vertex="1">
                    <mxGeometry x="160" y="1680" width="10" height="10" as="geometry"/>
                </mxCell>
                <mxCell id="334" value="" style="endArrow=none;html=1;rounded=0;exitX=1;exitY=0.25;exitDx=0;exitDy=0;entryX=0;entryY=0.5;entryDx=0;entryDy=0;strokeColor=#000000;" parent="1" source="329" target="333" edge="1">
                    <mxGeometry relative="1" as="geometry">
                        <mxPoint x="130" y="1732.34" as="sourcePoint"/>
                        <mxPoint x="208.29999999999995" y="1710" as="targetPoint"/>
                    </mxGeometry>
                </mxCell>
                <mxCell id="335" value="" style="ellipse;whiteSpace=wrap;html=1;aspect=fixed;fillStyle=auto;gradientDirection=west;strokeColor=#000000;fillColor=default;gradientColor=default;" parent="1" vertex="1">
                    <mxGeometry x="160" y="1700" width="10" height="10" as="geometry"/>
                </mxCell>
                <mxCell id="336" value="" style="endArrow=none;html=1;rounded=0;exitX=1;exitY=0.25;exitDx=0;exitDy=0;entryX=0;entryY=0.5;entryDx=0;entryDy=0;strokeColor=#000000;" parent="1" source="329" target="335" edge="1">
                    <mxGeometry relative="1" as="geometry">
                        <mxPoint x="130" y="1762.34" as="sourcePoint"/>
                        <mxPoint x="208.29999999999995" y="1740" as="targetPoint"/>
                    </mxGeometry>
                </mxCell>
                <mxCell id="337" value="" style="ellipse;whiteSpace=wrap;html=1;aspect=fixed;fillStyle=auto;gradientDirection=west;strokeColor=#000000;fillColor=default;gradientColor=default;" parent="1" vertex="1">
                    <mxGeometry x="160" y="1720" width="10" height="10" as="geometry"/>
                </mxCell>
                <mxCell id="338" value="" style="endArrow=none;html=1;rounded=0;exitX=1;exitY=0.25;exitDx=0;exitDy=0;entryX=0;entryY=0.5;entryDx=0;entryDy=0;strokeColor=#000000;" parent="1" source="329" target="337" edge="1">
                    <mxGeometry relative="1" as="geometry">
                        <mxPoint x="130" y="1792.34" as="sourcePoint"/>
                        <mxPoint x="208.29999999999995" y="1770" as="targetPoint"/>
                    </mxGeometry>
                </mxCell>
                <mxCell id="339" value="" style="ellipse;whiteSpace=wrap;html=1;aspect=fixed;fillStyle=auto;gradientDirection=south;strokeColor=#000000;fillColor=none;" parent="1" vertex="1">
                    <mxGeometry x="160" y="1740" width="10" height="10" as="geometry"/>
                </mxCell>
                <mxCell id="340" value="" style="endArrow=none;html=1;rounded=0;exitX=1;exitY=0.25;exitDx=0;exitDy=0;entryX=0;entryY=0.5;entryDx=0;entryDy=0;strokeColor=#000000;" parent="1" source="329" target="339" edge="1">
                    <mxGeometry relative="1" as="geometry">
                        <mxPoint x="130" y="1822.34" as="sourcePoint"/>
                        <mxPoint x="208.29999999999995" y="1800" as="targetPoint"/>
                    </mxGeometry>
                </mxCell>
                <mxCell id="341" value="idFactura" style="text;html=1;strokeColor=none;fillColor=none;align=center;verticalAlign=middle;whiteSpace=wrap;rounded=0;fillStyle=auto;strokeWidth=1;fontSize=9;container=0;movable=1;resizable=1;rotatable=1;deletable=1;editable=1;connectable=1;" parent="1" vertex="1">
                    <mxGeometry x="170" y="1660" width="60" height="10" as="geometry"/>
                </mxCell>
                <mxCell id="342" value="idUsuario" style="text;html=1;strokeColor=none;fillColor=none;align=center;verticalAlign=middle;whiteSpace=wrap;rounded=0;fillStyle=auto;strokeWidth=1;fontSize=9;" parent="1" vertex="1">
                    <mxGeometry x="170" y="1680" width="60" height="10" as="geometry"/>
                </mxCell>
                <mxCell id="343" value="idMetodoPago" style="text;html=1;strokeColor=none;fillColor=none;align=center;verticalAlign=middle;whiteSpace=wrap;rounded=0;fillStyle=auto;strokeWidth=1;fontSize=9;" parent="1" vertex="1">
                    <mxGeometry x="170" y="1700" width="60" height="10" as="geometry"/>
                </mxCell>
                <mxCell id="344" value="idPedido" style="text;html=1;strokeColor=none;fillColor=none;align=center;verticalAlign=middle;whiteSpace=wrap;rounded=0;fillStyle=auto;strokeWidth=1;fontSize=9;" parent="1" vertex="1">
                    <mxGeometry x="170" y="1720" width="60" height="10" as="geometry"/>
                </mxCell>
                <mxCell id="345" value="fecha" style="text;html=1;strokeColor=none;fillColor=none;align=center;verticalAlign=middle;whiteSpace=wrap;rounded=0;fillStyle=auto;strokeWidth=1;fontSize=9;" parent="1" vertex="1">
                    <mxGeometry x="170" y="1740" width="60" height="10" as="geometry"/>
                </mxCell>
                <mxCell id="346" value="" style="ellipse;whiteSpace=wrap;html=1;aspect=fixed;fillStyle=auto;gradientDirection=south;strokeColor=#000000;fillColor=none;" parent="1" vertex="1">
                    <mxGeometry x="160" y="1757.5" width="10" height="10" as="geometry"/>
                </mxCell>
                <mxCell id="347" value="" style="endArrow=none;html=1;rounded=0;exitX=1;exitY=0.25;exitDx=0;exitDy=0;entryX=0;entryY=0.5;entryDx=0;entryDy=0;strokeColor=#000000;" parent="1" source="329" target="346" edge="1">
                    <mxGeometry relative="1" as="geometry">
                        <mxPoint x="130" y="1722.5" as="sourcePoint"/>
                        <mxPoint x="208.29999999999995" y="1817.5" as="targetPoint"/>
                    </mxGeometry>
                </mxCell>
                <mxCell id="348" value="hora" style="text;html=1;strokeColor=none;fillColor=none;align=center;verticalAlign=middle;whiteSpace=wrap;rounded=0;fillStyle=auto;strokeWidth=1;fontSize=9;" parent="1" vertex="1">
                    <mxGeometry x="170" y="1757.5" width="60" height="10" as="geometry"/>
                </mxCell>
                <mxCell id="349" value="" style="ellipse;whiteSpace=wrap;html=1;aspect=fixed;fillStyle=auto;gradientDirection=south;strokeColor=#000000;fillColor=none;" parent="1" vertex="1">
                    <mxGeometry x="160" y="1775" width="10" height="10" as="geometry"/>
                </mxCell>
                <mxCell id="350" value="" style="endArrow=none;html=1;rounded=0;exitX=1;exitY=0.25;exitDx=0;exitDy=0;entryX=0;entryY=0.5;entryDx=0;entryDy=0;strokeColor=#000000;" parent="1" source="329" target="349" edge="1">
                    <mxGeometry relative="1" as="geometry">
                        <mxPoint x="130" y="1740" as="sourcePoint"/>
                        <mxPoint x="208.29999999999995" y="1835" as="targetPoint"/>
                    </mxGeometry>
                </mxCell>
                <mxCell id="351" value="total" style="text;html=1;strokeColor=none;fillColor=none;align=center;verticalAlign=middle;whiteSpace=wrap;rounded=0;fillStyle=auto;strokeWidth=1;fontSize=9;" parent="1" vertex="1">
                    <mxGeometry x="170" y="1775" width="60" height="10" as="geometry"/>
                </mxCell>
                <mxCell id="352" value="" style="ellipse;whiteSpace=wrap;html=1;aspect=fixed;fillStyle=auto;gradientDirection=south;strokeColor=#000000;fillColor=none;" parent="1" vertex="1">
                    <mxGeometry x="160" y="1792.5" width="10" height="10" as="geometry"/>
                </mxCell>
                <mxCell id="353" value="" style="endArrow=none;html=1;rounded=0;exitX=1;exitY=0.25;exitDx=0;exitDy=0;entryX=0;entryY=0.5;entryDx=0;entryDy=0;strokeColor=#000000;" parent="1" source="329" target="352" edge="1">
                    <mxGeometry relative="1" as="geometry">
                        <mxPoint x="130" y="1757.5" as="sourcePoint"/>
                        <mxPoint x="208.29999999999995" y="1852.5" as="targetPoint"/>
                    </mxGeometry>
                </mxCell>
                <mxCell id="354" value="estadoPago" style="text;html=1;strokeColor=none;fillColor=none;align=center;verticalAlign=middle;whiteSpace=wrap;rounded=0;fillStyle=auto;strokeWidth=1;fontSize=9;" parent="1" vertex="1">
                    <mxGeometry x="168.29999999999995" y="1792.5" width="60" height="10" as="geometry"/>
                </mxCell>
                <mxCell id="355" value="Comprobantes" style="whiteSpace=wrap;html=1;align=center;fillStyle=auto;strokeColor=#000000;fillColor=none;gradientColor=none;gradientDirection=south;" parent="1" vertex="1">
                    <mxGeometry x="28.299999999999997" y="1880" width="100" height="20" as="geometry"/>
                </mxCell>
                <mxCell id="356" style="edgeStyle=none;html=1;exitX=0;exitY=1;exitDx=0;exitDy=0;strokeColor=#000000;fontSize=9;" parent="1" source="357" edge="1">
                    <mxGeometry relative="1" as="geometry">
                        <mxPoint x="159.63333333333327" y="1848.6666666666667" as="targetPoint"/>
                    </mxGeometry>
                </mxCell>
                <mxCell id="357" value="" style="ellipse;whiteSpace=wrap;html=1;aspect=fixed;fillStyle=auto;gradientDirection=south;strokeColor=#000000;fillColor=#000000;" parent="1" vertex="1">
                    <mxGeometry x="158.3" y="1840" width="10" height="10" as="geometry"/>
                </mxCell>
                <mxCell id="358" value="" style="endArrow=none;html=1;rounded=0;exitX=1;exitY=0.25;exitDx=0;exitDy=0;entryX=0;entryY=0.5;entryDx=0;entryDy=0;strokeColor=#000000;" parent="1" source="355" target="357" edge="1">
                    <mxGeometry relative="1" as="geometry">
                        <mxPoint x="48.3" y="1860" as="sourcePoint"/>
                        <mxPoint x="208.3" y="1860" as="targetPoint"/>
                    </mxGeometry>
                </mxCell>
                <mxCell id="359" value="" style="ellipse;whiteSpace=wrap;html=1;aspect=fixed;fillStyle=auto;gradientDirection=west;strokeColor=#000000;fillColor=default;gradientColor=default;" parent="1" vertex="1">
                    <mxGeometry x="158.3" y="1860" width="10" height="10" as="geometry"/>
                </mxCell>
                <mxCell id="360" value="" style="endArrow=none;html=1;rounded=0;exitX=1;exitY=0.25;exitDx=0;exitDy=0;entryX=0;entryY=0.5;entryDx=0;entryDy=0;strokeColor=#000000;" parent="1" source="355" target="359" edge="1">
                    <mxGeometry relative="1" as="geometry">
                        <mxPoint x="128.3" y="1912.34" as="sourcePoint"/>
                        <mxPoint x="206.59999999999997" y="1890" as="targetPoint"/>
                    </mxGeometry>
                </mxCell>
                <mxCell id="361" value="" style="ellipse;whiteSpace=wrap;html=1;aspect=fixed;fillStyle=auto;gradientDirection=south;strokeColor=#000000;fillColor=none;" parent="1" vertex="1">
                    <mxGeometry x="158.3" y="1880" width="10" height="10" as="geometry"/>
                </mxCell>
                <mxCell id="362" value="" style="endArrow=none;html=1;rounded=0;exitX=1;exitY=0.25;exitDx=0;exitDy=0;entryX=0;entryY=0.5;entryDx=0;entryDy=0;strokeColor=#000000;" parent="1" source="355" target="361" edge="1">
                    <mxGeometry relative="1" as="geometry">
                        <mxPoint x="128.3" y="1942.34" as="sourcePoint"/>
                        <mxPoint x="206.59999999999997" y="1920" as="targetPoint"/>
                    </mxGeometry>
                </mxCell>
                <mxCell id="363" value="" style="ellipse;whiteSpace=wrap;html=1;aspect=fixed;fillStyle=auto;gradientDirection=south;strokeColor=#000000;fillColor=none;" parent="1" vertex="1">
                    <mxGeometry x="158.3" y="1900" width="10" height="10" as="geometry"/>
                </mxCell>
                <mxCell id="364" value="" style="endArrow=none;html=1;rounded=0;exitX=1;exitY=0.25;exitDx=0;exitDy=0;entryX=0;entryY=0.5;entryDx=0;entryDy=0;strokeColor=#000000;" parent="1" source="355" target="363" edge="1">
                    <mxGeometry relative="1" as="geometry">
                        <mxPoint x="128.3" y="1972.34" as="sourcePoint"/>
                        <mxPoint x="206.59999999999997" y="1950" as="targetPoint"/>
                    </mxGeometry>
                </mxCell>
                <mxCell id="365" value="" style="ellipse;whiteSpace=wrap;html=1;aspect=fixed;fillStyle=auto;gradientDirection=south;strokeColor=#000000;fillColor=none;" parent="1" vertex="1">
                    <mxGeometry x="158.3" y="1920" width="10" height="10" as="geometry"/>
                </mxCell>
                <mxCell id="366" value="" style="endArrow=none;html=1;rounded=0;exitX=1;exitY=0.25;exitDx=0;exitDy=0;entryX=0;entryY=0.5;entryDx=0;entryDy=0;strokeColor=#000000;" parent="1" source="355" target="365" edge="1">
                    <mxGeometry relative="1" as="geometry">
                        <mxPoint x="128.3" y="2002.34" as="sourcePoint"/>
                        <mxPoint x="206.59999999999997" y="1980" as="targetPoint"/>
                    </mxGeometry>
                </mxCell>
                <mxCell id="367" value="idComprobante" style="text;html=1;strokeColor=none;fillColor=none;align=center;verticalAlign=middle;whiteSpace=wrap;rounded=0;fillStyle=auto;strokeWidth=1;fontSize=9;container=0;movable=1;resizable=1;rotatable=1;deletable=1;editable=1;connectable=1;" parent="1" vertex="1">
                    <mxGeometry x="168.3" y="1840" width="60" height="10" as="geometry"/>
                </mxCell>
                <mxCell id="368" value="idPedido" style="text;html=1;strokeColor=none;fillColor=none;align=center;verticalAlign=middle;whiteSpace=wrap;rounded=0;fillStyle=auto;strokeWidth=1;fontSize=9;" parent="1" vertex="1">
                    <mxGeometry x="168.3" y="1860" width="60" height="10" as="geometry"/>
                </mxCell>
                <mxCell id="369" value="fecha" style="text;html=1;strokeColor=none;fillColor=none;align=center;verticalAlign=middle;whiteSpace=wrap;rounded=0;fillStyle=auto;strokeWidth=1;fontSize=9;" parent="1" vertex="1">
                    <mxGeometry x="168.3" y="1880" width="60" height="10" as="geometry"/>
                </mxCell>
                <mxCell id="370" value="total" style="text;html=1;strokeColor=none;fillColor=none;align=center;verticalAlign=middle;whiteSpace=wrap;rounded=0;fillStyle=auto;strokeWidth=1;fontSize=9;" parent="1" vertex="1">
                    <mxGeometry x="168.3" y="1900" width="60" height="10" as="geometry"/>
                </mxCell>
                <mxCell id="371" value="detalle" style="text;html=1;strokeColor=none;fillColor=none;align=center;verticalAlign=middle;whiteSpace=wrap;rounded=0;fillStyle=auto;strokeWidth=1;fontSize=9;" parent="1" vertex="1">
                    <mxGeometry x="168.3" y="1920" width="60" height="10" as="geometry"/>
                </mxCell>
                <mxCell id="372" value="" style="ellipse;whiteSpace=wrap;html=1;aspect=fixed;fillStyle=auto;gradientDirection=south;strokeColor=#000000;fillColor=none;" parent="1" vertex="1">
                    <mxGeometry x="158.3" y="1937.5" width="10" height="10" as="geometry"/>
                </mxCell>
                <mxCell id="373" value="" style="endArrow=none;html=1;rounded=0;exitX=1;exitY=0.25;exitDx=0;exitDy=0;entryX=0;entryY=0.5;entryDx=0;entryDy=0;strokeColor=#000000;" parent="1" source="355" target="372" edge="1">
                    <mxGeometry relative="1" as="geometry">
                        <mxPoint x="128.3" y="1902.5" as="sourcePoint"/>
                        <mxPoint x="206.59999999999997" y="1997.5" as="targetPoint"/>
                    </mxGeometry>
                </mxCell>
                <mxCell id="374" value="estadoPago" style="text;html=1;strokeColor=none;fillColor=none;align=center;verticalAlign=middle;whiteSpace=wrap;rounded=0;fillStyle=auto;strokeWidth=1;fontSize=9;" parent="1" vertex="1">
                    <mxGeometry x="168.3" y="1937.5" width="60" height="10" as="geometry"/>
                </mxCell>
                <mxCell id="381" value="MetodosPagos" style="whiteSpace=wrap;html=1;align=center;fillStyle=auto;strokeColor=#000000;fillColor=none;gradientColor=none;gradientDirection=south;" parent="1" vertex="1">
                    <mxGeometry x="1070" y="790" width="100" height="20" as="geometry"/>
                </mxCell>
                <mxCell id="382" style="edgeStyle=none;html=1;exitX=0;exitY=1;exitDx=0;exitDy=0;strokeColor=#000000;fontSize=9;" parent="1" source="383" edge="1">
                    <mxGeometry relative="1" as="geometry">
                        <mxPoint x="1201.3333333333333" y="758.6666666666667" as="targetPoint"/>
                    </mxGeometry>
                </mxCell>
                <mxCell id="383" value="" style="ellipse;whiteSpace=wrap;html=1;aspect=fixed;fillStyle=auto;gradientDirection=south;strokeColor=#000000;fillColor=#000000;" parent="1" vertex="1">
                    <mxGeometry x="1200" y="750" width="10" height="10" as="geometry"/>
                </mxCell>
                <mxCell id="384" value="" style="endArrow=none;html=1;rounded=0;exitX=1;exitY=0.25;exitDx=0;exitDy=0;entryX=0;entryY=0.5;entryDx=0;entryDy=0;strokeColor=#000000;" parent="1" source="381" target="383" edge="1">
                    <mxGeometry relative="1" as="geometry">
                        <mxPoint x="1090" y="770" as="sourcePoint"/>
                        <mxPoint x="1250" y="770" as="targetPoint"/>
                    </mxGeometry>
                </mxCell>
                <mxCell id="385" value="" style="ellipse;whiteSpace=wrap;html=1;aspect=fixed;fillStyle=auto;gradientDirection=south;strokeColor=#000000;fillColor=none;" parent="1" vertex="1">
                    <mxGeometry x="1200" y="770" width="10" height="10" as="geometry"/>
                </mxCell>
                <mxCell id="386" value="" style="endArrow=none;html=1;rounded=0;exitX=1;exitY=0.25;exitDx=0;exitDy=0;entryX=0;entryY=0.5;entryDx=0;entryDy=0;strokeColor=#000000;" parent="1" source="381" target="385" edge="1">
                    <mxGeometry relative="1" as="geometry">
                        <mxPoint x="1170" y="822.3399999999999" as="sourcePoint"/>
                        <mxPoint x="1248.3" y="800" as="targetPoint"/>
                    </mxGeometry>
                </mxCell>
                <mxCell id="387" value="" style="ellipse;whiteSpace=wrap;html=1;aspect=fixed;fillStyle=auto;gradientDirection=south;strokeColor=#000000;fillColor=none;" parent="1" vertex="1">
                    <mxGeometry x="1200" y="790" width="10" height="10" as="geometry"/>
                </mxCell>
                <mxCell id="388" value="" style="endArrow=none;html=1;rounded=0;exitX=1;exitY=0.25;exitDx=0;exitDy=0;entryX=0;entryY=0.5;entryDx=0;entryDy=0;strokeColor=#000000;" parent="1" source="381" target="387" edge="1">
                    <mxGeometry relative="1" as="geometry">
                        <mxPoint x="1170" y="852.3399999999999" as="sourcePoint"/>
                        <mxPoint x="1248.3" y="830" as="targetPoint"/>
                    </mxGeometry>
                </mxCell>
                <mxCell id="393" value="idMetodoPago" style="text;html=1;strokeColor=none;fillColor=none;align=center;verticalAlign=middle;whiteSpace=wrap;rounded=0;fillStyle=auto;strokeWidth=1;fontSize=9;container=0;movable=1;resizable=1;rotatable=1;deletable=1;editable=1;connectable=1;" parent="1" vertex="1">
                    <mxGeometry x="1220" y="750" width="60" height="10" as="geometry"/>
                </mxCell>
                <mxCell id="394" value="nombre" style="text;html=1;strokeColor=none;fillColor=none;align=center;verticalAlign=middle;whiteSpace=wrap;rounded=0;fillStyle=auto;strokeWidth=1;fontSize=9;" parent="1" vertex="1">
                    <mxGeometry x="1210" y="770" width="60" height="10" as="geometry"/>
                </mxCell>
                <mxCell id="395" value="descripcion" style="text;html=1;strokeColor=none;fillColor=none;align=center;verticalAlign=middle;whiteSpace=wrap;rounded=0;fillStyle=auto;strokeWidth=1;fontSize=9;" parent="1" vertex="1">
                    <mxGeometry x="1210" y="790" width="60" height="10" as="geometry"/>
                </mxCell>
                <mxCell id="412" value="descripcion" style="text;html=1;strokeColor=none;fillColor=none;align=center;verticalAlign=middle;whiteSpace=wrap;rounded=0;fillStyle=auto;strokeWidth=1;fontSize=9;" parent="1" vertex="1">
                    <mxGeometry x="1440" y="460" width="60" height="10" as="geometry"/>
                </mxCell>
                <mxCell id="413" value="DireccionesEnvio" style="whiteSpace=wrap;html=1;align=center;fillStyle=auto;strokeColor=#000000;fillColor=none;gradientColor=none;gradientDirection=south;" parent="1" vertex="1">
                    <mxGeometry x="1310" y="790" width="100" height="20" as="geometry"/>
                </mxCell>
                <mxCell id="414" style="edgeStyle=none;html=1;exitX=0;exitY=1;exitDx=0;exitDy=0;strokeColor=#000000;fontSize=9;" parent="1" source="415" edge="1">
                    <mxGeometry relative="1" as="geometry">
                        <mxPoint x="1441.3333333333333" y="758.6666666666667" as="targetPoint"/>
                    </mxGeometry>
                </mxCell>
                <mxCell id="415" value="" style="ellipse;whiteSpace=wrap;html=1;aspect=fixed;fillStyle=auto;gradientDirection=south;strokeColor=#000000;fillColor=#000000;" parent="1" vertex="1">
                    <mxGeometry x="1440" y="750" width="10" height="10" as="geometry"/>
                </mxCell>
                <mxCell id="416" value="" style="endArrow=none;html=1;rounded=0;exitX=1;exitY=0.25;exitDx=0;exitDy=0;entryX=0;entryY=0.5;entryDx=0;entryDy=0;strokeColor=#000000;" parent="1" source="413" target="415" edge="1">
                    <mxGeometry relative="1" as="geometry">
                        <mxPoint x="1330" y="770" as="sourcePoint"/>
                        <mxPoint x="1490" y="770" as="targetPoint"/>
                    </mxGeometry>
                </mxCell>
                <mxCell id="417" value="" style="ellipse;whiteSpace=wrap;html=1;aspect=fixed;fillStyle=auto;gradientDirection=west;strokeColor=#000000;fillColor=default;gradientColor=default;" parent="1" vertex="1">
                    <mxGeometry x="1440" y="770" width="10" height="10" as="geometry"/>
                </mxCell>
                <mxCell id="418" value="" style="endArrow=none;html=1;rounded=0;exitX=1;exitY=0.25;exitDx=0;exitDy=0;entryX=0;entryY=0.5;entryDx=0;entryDy=0;strokeColor=#000000;" parent="1" source="413" target="417" edge="1">
                    <mxGeometry relative="1" as="geometry">
                        <mxPoint x="1410" y="822.3399999999999" as="sourcePoint"/>
                        <mxPoint x="1488.3" y="800" as="targetPoint"/>
                    </mxGeometry>
                </mxCell>
                <mxCell id="419" value="" style="ellipse;whiteSpace=wrap;html=1;aspect=fixed;fillStyle=auto;gradientDirection=south;strokeColor=#000000;fillColor=none;" parent="1" vertex="1">
                    <mxGeometry x="1440" y="790" width="10" height="10" as="geometry"/>
                </mxCell>
                <mxCell id="420" value="" style="endArrow=none;html=1;rounded=0;exitX=1;exitY=0.25;exitDx=0;exitDy=0;entryX=0;entryY=0.5;entryDx=0;entryDy=0;strokeColor=#000000;" parent="1" source="413" target="419" edge="1">
                    <mxGeometry relative="1" as="geometry">
                        <mxPoint x="1410" y="852.3399999999999" as="sourcePoint"/>
                        <mxPoint x="1488.3" y="830" as="targetPoint"/>
                    </mxGeometry>
                </mxCell>
                <mxCell id="421" value="" style="ellipse;whiteSpace=wrap;html=1;aspect=fixed;fillStyle=auto;gradientDirection=south;strokeColor=#000000;fillColor=none;" parent="1" vertex="1">
                    <mxGeometry x="1440" y="810" width="10" height="10" as="geometry"/>
                </mxCell>
                <mxCell id="422" value="" style="endArrow=none;html=1;rounded=0;exitX=1;exitY=0.25;exitDx=0;exitDy=0;entryX=0;entryY=0.5;entryDx=0;entryDy=0;strokeColor=#000000;" parent="1" source="413" target="421" edge="1">
                    <mxGeometry relative="1" as="geometry">
                        <mxPoint x="1410" y="882.3399999999999" as="sourcePoint"/>
                        <mxPoint x="1488.3" y="860" as="targetPoint"/>
                    </mxGeometry>
                </mxCell>
                <mxCell id="423" value="" style="ellipse;whiteSpace=wrap;html=1;aspect=fixed;fillStyle=auto;gradientDirection=south;strokeColor=#000000;fillColor=none;" parent="1" vertex="1">
                    <mxGeometry x="1440" y="830" width="10" height="10" as="geometry"/>
                </mxCell>
                <mxCell id="424" value="" style="endArrow=none;html=1;rounded=0;exitX=1;exitY=0.25;exitDx=0;exitDy=0;entryX=0;entryY=0.5;entryDx=0;entryDy=0;strokeColor=#000000;" parent="1" source="413" target="423" edge="1">
                    <mxGeometry relative="1" as="geometry">
                        <mxPoint x="1410" y="912.3399999999999" as="sourcePoint"/>
                        <mxPoint x="1488.3" y="890" as="targetPoint"/>
                    </mxGeometry>
                </mxCell>
                <mxCell id="425" value="idDireccion" style="text;html=1;strokeColor=none;fillColor=none;align=center;verticalAlign=middle;whiteSpace=wrap;rounded=0;fillStyle=auto;strokeWidth=1;fontSize=9;container=0;movable=1;resizable=1;rotatable=1;deletable=1;editable=1;connectable=1;" parent="1" vertex="1">
                    <mxGeometry x="1450" y="750" width="60" height="10" as="geometry"/>
                </mxCell>
                <mxCell id="426" value="idUsuario" style="text;html=1;strokeColor=none;fillColor=none;align=center;verticalAlign=middle;whiteSpace=wrap;rounded=0;fillStyle=auto;strokeWidth=1;fontSize=9;" parent="1" vertex="1">
                    <mxGeometry x="1450" y="770" width="60" height="10" as="geometry"/>
                </mxCell>
                <mxCell id="427" value="dirreccion" style="text;html=1;strokeColor=none;fillColor=none;align=center;verticalAlign=middle;whiteSpace=wrap;rounded=0;fillStyle=auto;strokeWidth=1;fontSize=9;" parent="1" vertex="1">
                    <mxGeometry x="1450" y="790" width="60" height="10" as="geometry"/>
                </mxCell>
                <mxCell id="428" value="department" style="text;html=1;strokeColor=none;fillColor=none;align=center;verticalAlign=middle;whiteSpace=wrap;rounded=0;fillStyle=auto;strokeWidth=1;fontSize=9;" parent="1" vertex="1">
                    <mxGeometry x="1450" y="810" width="60" height="10" as="geometry"/>
                </mxCell>
                <mxCell id="429" value="municipality" style="text;html=1;strokeColor=none;fillColor=none;align=center;verticalAlign=middle;whiteSpace=wrap;rounded=0;fillStyle=auto;strokeWidth=1;fontSize=9;" parent="1" vertex="1">
                    <mxGeometry x="1450" y="830" width="60" height="10" as="geometry"/>
                </mxCell>
                <mxCell id="430" value="" style="ellipse;whiteSpace=wrap;html=1;aspect=fixed;fillStyle=auto;gradientDirection=south;strokeColor=#000000;fillColor=none;" parent="1" vertex="1">
                    <mxGeometry x="1440" y="847.5" width="10" height="10" as="geometry"/>
                </mxCell>
                <mxCell id="431" value="" style="endArrow=none;html=1;rounded=0;exitX=1;exitY=0.25;exitDx=0;exitDy=0;entryX=0;entryY=0.5;entryDx=0;entryDy=0;strokeColor=#000000;" parent="1" source="413" target="430" edge="1">
                    <mxGeometry relative="1" as="geometry">
                        <mxPoint x="1410" y="812.5" as="sourcePoint"/>
                        <mxPoint x="1488.3" y="907.5" as="targetPoint"/>
                    </mxGeometry>
                </mxCell>
                <mxCell id="432" value="city" style="text;html=1;strokeColor=none;fillColor=none;align=center;verticalAlign=middle;whiteSpace=wrap;rounded=0;fillStyle=auto;strokeWidth=1;fontSize=9;" parent="1" vertex="1">
                    <mxGeometry x="1450" y="847.5" width="60" height="10" as="geometry"/>
                </mxCell>
                <mxCell id="434" value="" style="ellipse;whiteSpace=wrap;html=1;aspect=fixed;fillStyle=auto;gradientDirection=south;strokeColor=#000000;fillColor=none;" parent="1" vertex="1">
                    <mxGeometry x="1440" y="870" width="10" height="10" as="geometry"/>
                </mxCell>
                <mxCell id="435" value="street" style="text;html=1;strokeColor=none;fillColor=none;align=center;verticalAlign=middle;whiteSpace=wrap;rounded=0;fillStyle=auto;strokeWidth=1;fontSize=9;" parent="1" vertex="1">
                    <mxGeometry x="1450" y="870" width="60" height="10" as="geometry"/>
                </mxCell>
                <mxCell id="436" value="" style="endArrow=none;html=1;rounded=0;exitX=1;exitY=0.25;exitDx=0;exitDy=0;entryX=0;entryY=0;entryDx=0;entryDy=0;strokeColor=#000000;" parent="1" source="413" target="434" edge="1">
                    <mxGeometry relative="1" as="geometry">
                        <mxPoint x="1410" y="820" as="sourcePoint"/>
                        <mxPoint x="1440" y="877.5" as="targetPoint"/>
                    </mxGeometry>
                </mxCell>
                <mxCell id="437" value="CuponesDescuento" style="whiteSpace=wrap;html=1;align=center;fillStyle=auto;strokeColor=#000000;fillColor=none;gradientColor=none;gradientDirection=south;" parent="1" vertex="1">
                    <mxGeometry x="28.30000000000001" y="2020" width="100" height="20" as="geometry"/>
                </mxCell>
                <mxCell id="438" style="edgeStyle=none;html=1;exitX=0;exitY=1;exitDx=0;exitDy=0;strokeColor=#000000;fontSize=9;" parent="1" source="439" edge="1">
                    <mxGeometry relative="1" as="geometry">
                        <mxPoint x="159.63333333333327" y="1988.6666666666667" as="targetPoint"/>
                    </mxGeometry>
                </mxCell>
                <mxCell id="439" value="" style="ellipse;whiteSpace=wrap;html=1;aspect=fixed;fillStyle=auto;gradientDirection=south;strokeColor=#000000;fillColor=#000000;" parent="1" vertex="1">
                    <mxGeometry x="158.3" y="1980" width="10" height="10" as="geometry"/>
                </mxCell>
                <mxCell id="440" value="" style="endArrow=none;html=1;rounded=0;exitX=1;exitY=0.25;exitDx=0;exitDy=0;entryX=0;entryY=0.5;entryDx=0;entryDy=0;strokeColor=#000000;" parent="1" source="437" target="439" edge="1">
                    <mxGeometry relative="1" as="geometry">
                        <mxPoint x="48.30000000000001" y="2000" as="sourcePoint"/>
                        <mxPoint x="208.3" y="2000" as="targetPoint"/>
                    </mxGeometry>
                </mxCell>
                <mxCell id="441" value="" style="ellipse;whiteSpace=wrap;html=1;aspect=fixed;fillStyle=auto;gradientDirection=west;strokeColor=#000000;fillColor=default;gradientColor=default;" parent="1" vertex="1">
                    <mxGeometry x="158.3" y="2000" width="10" height="10" as="geometry"/>
                </mxCell>
                <mxCell id="442" value="" style="endArrow=none;html=1;rounded=0;exitX=1;exitY=0.25;exitDx=0;exitDy=0;entryX=0;entryY=0.5;entryDx=0;entryDy=0;strokeColor=#000000;" parent="1" source="437" target="441" edge="1">
                    <mxGeometry relative="1" as="geometry">
                        <mxPoint x="128.3" y="2052.34" as="sourcePoint"/>
                        <mxPoint x="206.59999999999997" y="2030" as="targetPoint"/>
                    </mxGeometry>
                </mxCell>
                <mxCell id="443" value="" style="ellipse;whiteSpace=wrap;html=1;aspect=fixed;fillStyle=auto;gradientDirection=south;strokeColor=#000000;fillColor=none;" parent="1" vertex="1">
                    <mxGeometry x="158.3" y="2020" width="10" height="10" as="geometry"/>
                </mxCell>
                <mxCell id="444" value="" style="endArrow=none;html=1;rounded=0;exitX=1;exitY=0.25;exitDx=0;exitDy=0;entryX=0;entryY=0.5;entryDx=0;entryDy=0;strokeColor=#000000;" parent="1" source="437" target="443" edge="1">
                    <mxGeometry relative="1" as="geometry">
                        <mxPoint x="128.3" y="2082.34" as="sourcePoint"/>
                        <mxPoint x="206.59999999999997" y="2060" as="targetPoint"/>
                    </mxGeometry>
                </mxCell>
                <mxCell id="445" value="" style="ellipse;whiteSpace=wrap;html=1;aspect=fixed;fillStyle=auto;gradientDirection=south;strokeColor=#000000;fillColor=none;" parent="1" vertex="1">
                    <mxGeometry x="158.3" y="2040" width="10" height="10" as="geometry"/>
                </mxCell>
                <mxCell id="446" value="" style="endArrow=none;html=1;rounded=0;exitX=1;exitY=0.25;exitDx=0;exitDy=0;entryX=0;entryY=0.5;entryDx=0;entryDy=0;strokeColor=#000000;" parent="1" source="437" target="445" edge="1">
                    <mxGeometry relative="1" as="geometry">
                        <mxPoint x="128.3" y="2112.34" as="sourcePoint"/>
                        <mxPoint x="206.59999999999997" y="2090" as="targetPoint"/>
                    </mxGeometry>
                </mxCell>
                <mxCell id="447" value="" style="ellipse;whiteSpace=wrap;html=1;aspect=fixed;fillStyle=auto;gradientDirection=south;strokeColor=#000000;fillColor=none;" parent="1" vertex="1">
                    <mxGeometry x="158.3" y="2060" width="10" height="10" as="geometry"/>
                </mxCell>
                <mxCell id="448" value="" style="endArrow=none;html=1;rounded=0;exitX=1;exitY=0.25;exitDx=0;exitDy=0;entryX=0;entryY=0.5;entryDx=0;entryDy=0;strokeColor=#000000;" parent="1" source="437" target="447" edge="1">
                    <mxGeometry relative="1" as="geometry">
                        <mxPoint x="128.3" y="2142.34" as="sourcePoint"/>
                        <mxPoint x="206.59999999999997" y="2120" as="targetPoint"/>
                    </mxGeometry>
                </mxCell>
                <mxCell id="449" value="idCupon" style="text;html=1;strokeColor=none;fillColor=none;align=center;verticalAlign=middle;whiteSpace=wrap;rounded=0;fillStyle=auto;strokeWidth=1;fontSize=9;container=0;movable=1;resizable=1;rotatable=1;deletable=1;editable=1;connectable=1;" parent="1" vertex="1">
                    <mxGeometry x="168.3" y="1980" width="60" height="10" as="geometry"/>
                </mxCell>
                <mxCell id="450" value="codigo" style="text;html=1;strokeColor=none;fillColor=none;align=center;verticalAlign=middle;whiteSpace=wrap;rounded=0;fillStyle=auto;strokeWidth=1;fontSize=9;" parent="1" vertex="1">
                    <mxGeometry x="168.3" y="2000" width="60" height="10" as="geometry"/>
                </mxCell>
                <mxCell id="451" value="descuento" style="text;html=1;strokeColor=none;fillColor=none;align=center;verticalAlign=middle;whiteSpace=wrap;rounded=0;fillStyle=auto;strokeWidth=1;fontSize=9;" parent="1" vertex="1">
                    <mxGeometry x="168.3" y="2020" width="60" height="10" as="geometry"/>
                </mxCell>
                <mxCell id="452" value="fechaInicio" style="text;html=1;strokeColor=none;fillColor=none;align=center;verticalAlign=middle;whiteSpace=wrap;rounded=0;fillStyle=auto;strokeWidth=1;fontSize=9;" parent="1" vertex="1">
                    <mxGeometry x="168.3" y="2040" width="60" height="10" as="geometry"/>
                </mxCell>
                <mxCell id="453" value="fechaFin" style="text;html=1;strokeColor=none;fillColor=none;align=center;verticalAlign=middle;whiteSpace=wrap;rounded=0;fillStyle=auto;strokeWidth=1;fontSize=9;" parent="1" vertex="1">
                    <mxGeometry x="168.3" y="2060" width="60" height="10" as="geometry"/>
                </mxCell>
                <mxCell id="454" value="" style="ellipse;whiteSpace=wrap;html=1;aspect=fixed;fillStyle=auto;gradientDirection=south;strokeColor=#000000;fillColor=none;" parent="1" vertex="1">
                    <mxGeometry x="158.3" y="2077.5" width="10" height="10" as="geometry"/>
                </mxCell>
                <mxCell id="455" value="" style="endArrow=none;html=1;rounded=0;exitX=1;exitY=0.25;exitDx=0;exitDy=0;entryX=0;entryY=0.5;entryDx=0;entryDy=0;strokeColor=#000000;" parent="1" source="437" target="454" edge="1">
                    <mxGeometry relative="1" as="geometry">
                        <mxPoint x="128.3" y="2042.5" as="sourcePoint"/>
                        <mxPoint x="206.59999999999997" y="2137.5" as="targetPoint"/>
                    </mxGeometry>
                </mxCell>
                <mxCell id="456" value="estado" style="text;html=1;strokeColor=none;fillColor=none;align=center;verticalAlign=middle;whiteSpace=wrap;rounded=0;fillStyle=auto;strokeWidth=1;fontSize=9;" parent="1" vertex="1">
                    <mxGeometry x="168.3" y="2077.5" width="60" height="10" as="geometry"/>
                </mxCell>
                <mxCell id="460" value="HistorialesPago" style="whiteSpace=wrap;html=1;align=center;fillStyle=auto;strokeColor=#000000;fillColor=none;gradientColor=none;gradientDirection=south;" parent="1" vertex="1">
                    <mxGeometry x="1070" y="926.25" width="100" height="20" as="geometry"/>
                </mxCell>
                <mxCell id="461" style="edgeStyle=none;html=1;exitX=0;exitY=1;exitDx=0;exitDy=0;strokeColor=#000000;fontSize=9;" parent="1" source="462" edge="1">
                    <mxGeometry relative="1" as="geometry">
                        <mxPoint x="1201.3333333333333" y="894.9166666666667" as="targetPoint"/>
                    </mxGeometry>
                </mxCell>
                <mxCell id="462" value="" style="ellipse;whiteSpace=wrap;html=1;aspect=fixed;fillStyle=auto;gradientDirection=south;strokeColor=#000000;fillColor=#000000;" parent="1" vertex="1">
                    <mxGeometry x="1200" y="886.25" width="10" height="10" as="geometry"/>
                </mxCell>
                <mxCell id="463" value="" style="endArrow=none;html=1;rounded=0;exitX=1;exitY=0.25;exitDx=0;exitDy=0;entryX=0;entryY=0.5;entryDx=0;entryDy=0;strokeColor=#000000;" parent="1" source="460" target="462" edge="1">
                    <mxGeometry relative="1" as="geometry">
                        <mxPoint x="1090" y="906.25" as="sourcePoint"/>
                        <mxPoint x="1250" y="906.25" as="targetPoint"/>
                    </mxGeometry>
                </mxCell>
                <mxCell id="464" value="" style="ellipse;whiteSpace=wrap;html=1;aspect=fixed;fillStyle=auto;gradientDirection=west;strokeColor=#000000;fillColor=default;gradientColor=default;" parent="1" vertex="1">
                    <mxGeometry x="1200" y="906.25" width="10" height="10" as="geometry"/>
                </mxCell>
                <mxCell id="465" value="" style="endArrow=none;html=1;rounded=0;exitX=1;exitY=0.25;exitDx=0;exitDy=0;entryX=0;entryY=0.5;entryDx=0;entryDy=0;strokeColor=#000000;" parent="1" source="460" target="464" edge="1">
                    <mxGeometry relative="1" as="geometry">
                        <mxPoint x="1170" y="958.5899999999999" as="sourcePoint"/>
                        <mxPoint x="1248.3" y="936.25" as="targetPoint"/>
                    </mxGeometry>
                </mxCell>
                <mxCell id="466" value="" style="ellipse;whiteSpace=wrap;html=1;aspect=fixed;fillStyle=auto;gradientDirection=west;strokeColor=#000000;fillColor=default;gradientColor=default;" parent="1" vertex="1">
                    <mxGeometry x="1200" y="926.25" width="10" height="10" as="geometry"/>
                </mxCell>
                <mxCell id="467" value="" style="endArrow=none;html=1;rounded=0;exitX=1;exitY=0.25;exitDx=0;exitDy=0;entryX=0;entryY=0.5;entryDx=0;entryDy=0;strokeColor=#000000;" parent="1" source="460" target="466" edge="1">
                    <mxGeometry relative="1" as="geometry">
                        <mxPoint x="1170" y="988.5899999999999" as="sourcePoint"/>
                        <mxPoint x="1248.3" y="966.25" as="targetPoint"/>
                    </mxGeometry>
                </mxCell>
                <mxCell id="468" value="" style="ellipse;whiteSpace=wrap;html=1;aspect=fixed;fillStyle=auto;gradientDirection=south;strokeColor=#000000;fillColor=none;" parent="1" vertex="1">
                    <mxGeometry x="1200" y="946.25" width="10" height="10" as="geometry"/>
                </mxCell>
                <mxCell id="469" value="" style="endArrow=none;html=1;rounded=0;exitX=1;exitY=0.25;exitDx=0;exitDy=0;entryX=0;entryY=0.5;entryDx=0;entryDy=0;strokeColor=#000000;" parent="1" source="460" target="468" edge="1">
                    <mxGeometry relative="1" as="geometry">
                        <mxPoint x="1170" y="1018.5899999999999" as="sourcePoint"/>
                        <mxPoint x="1248.3" y="996.25" as="targetPoint"/>
                    </mxGeometry>
                </mxCell>
                <mxCell id="470" value="" style="ellipse;whiteSpace=wrap;html=1;aspect=fixed;fillStyle=auto;gradientDirection=south;strokeColor=#000000;fillColor=none;" parent="1" vertex="1">
                    <mxGeometry x="1200" y="966.25" width="10" height="10" as="geometry"/>
                </mxCell>
                <mxCell id="471" value="" style="endArrow=none;html=1;rounded=0;exitX=1;exitY=0.25;exitDx=0;exitDy=0;entryX=0;entryY=0.5;entryDx=0;entryDy=0;strokeColor=#000000;" parent="1" source="460" target="470" edge="1">
                    <mxGeometry relative="1" as="geometry">
                        <mxPoint x="1170" y="1048.59" as="sourcePoint"/>
                        <mxPoint x="1248.3" y="1026.25" as="targetPoint"/>
                    </mxGeometry>
                </mxCell>
                <mxCell id="472" value="idHistorialPago" style="text;html=1;strokeColor=none;fillColor=none;align=center;verticalAlign=middle;whiteSpace=wrap;rounded=0;fillStyle=auto;strokeWidth=1;fontSize=9;container=0;movable=1;resizable=1;rotatable=1;deletable=1;editable=1;connectable=1;" parent="1" vertex="1">
                    <mxGeometry x="1210" y="886.25" width="60" height="10" as="geometry"/>
                </mxCell>
                <mxCell id="473" value="idUsuario" style="text;html=1;strokeColor=none;fillColor=none;align=center;verticalAlign=middle;whiteSpace=wrap;rounded=0;fillStyle=auto;strokeWidth=1;fontSize=9;" parent="1" vertex="1">
                    <mxGeometry x="1210" y="906.25" width="60" height="10" as="geometry"/>
                </mxCell>
                <mxCell id="474" value="idMetodoPago" style="text;html=1;strokeColor=none;fillColor=none;align=center;verticalAlign=middle;whiteSpace=wrap;rounded=0;fillStyle=auto;strokeWidth=1;fontSize=9;" parent="1" vertex="1">
                    <mxGeometry x="1210" y="926.25" width="60" height="10" as="geometry"/>
                </mxCell>
                <mxCell id="475" value="fecha" style="text;html=1;strokeColor=none;fillColor=none;align=center;verticalAlign=middle;whiteSpace=wrap;rounded=0;fillStyle=auto;strokeWidth=1;fontSize=9;" parent="1" vertex="1">
                    <mxGeometry x="1210" y="946.25" width="60" height="10" as="geometry"/>
                </mxCell>
                <mxCell id="476" value="hora" style="text;html=1;strokeColor=none;fillColor=none;align=center;verticalAlign=middle;whiteSpace=wrap;rounded=0;fillStyle=auto;strokeWidth=1;fontSize=9;" parent="1" vertex="1">
                    <mxGeometry x="1210" y="966.25" width="60" height="10" as="geometry"/>
                </mxCell>
                <mxCell id="477" value="" style="ellipse;whiteSpace=wrap;html=1;aspect=fixed;fillStyle=auto;gradientDirection=south;strokeColor=#000000;fillColor=none;" parent="1" vertex="1">
                    <mxGeometry x="1200" y="983.75" width="10" height="10" as="geometry"/>
                </mxCell>
                <mxCell id="478" value="" style="endArrow=none;html=1;rounded=0;exitX=1;exitY=0.25;exitDx=0;exitDy=0;entryX=0;entryY=0.5;entryDx=0;entryDy=0;strokeColor=#000000;" parent="1" source="460" target="477" edge="1">
                    <mxGeometry relative="1" as="geometry">
                        <mxPoint x="1170" y="948.75" as="sourcePoint"/>
                        <mxPoint x="1248.3" y="1043.75" as="targetPoint"/>
                    </mxGeometry>
                </mxCell>
                <mxCell id="479" value="monto" style="text;html=1;strokeColor=none;fillColor=none;align=center;verticalAlign=middle;whiteSpace=wrap;rounded=0;fillStyle=auto;strokeWidth=1;fontSize=9;" parent="1" vertex="1">
                    <mxGeometry x="1210" y="983.75" width="60" height="10" as="geometry"/>
                </mxCell>
                <mxCell id="480" value="estado" style="text;html=1;strokeColor=none;fillColor=none;align=center;verticalAlign=middle;whiteSpace=wrap;rounded=0;fillStyle=auto;strokeWidth=1;fontSize=9;" parent="1" vertex="1">
                    <mxGeometry x="1210" y="1000" width="60" height="10" as="geometry"/>
                </mxCell>
                <mxCell id="484" value="" style="ellipse;whiteSpace=wrap;html=1;aspect=fixed;fillStyle=auto;gradientDirection=south;strokeColor=#000000;fillColor=none;" parent="1" vertex="1">
                    <mxGeometry x="1200" y="1000" width="10" height="10" as="geometry"/>
                </mxCell>
                <mxCell id="485" value="" style="endArrow=none;html=1;rounded=0;exitX=1;exitY=0.25;exitDx=0;exitDy=0;entryX=0;entryY=0.5;entryDx=0;entryDy=0;strokeColor=#000000;" parent="1" source="460" target="484" edge="1">
                    <mxGeometry relative="1" as="geometry">
                        <mxPoint x="1180" y="941.25" as="sourcePoint"/>
                        <mxPoint x="1258.3" y="1053.75" as="targetPoint"/>
                    </mxGeometry>
                </mxCell>
                <mxCell id="497" value="PedidosProductos" style="whiteSpace=wrap;html=1;align=center;fillStyle=auto;strokeColor=#000000;fillColor=none;gradientColor=none;gradientDirection=south;" parent="1" vertex="1">
                    <mxGeometry x="1060" y="1080" width="100" height="20" as="geometry"/>
                </mxCell>
                <mxCell id="498" style="edgeStyle=none;html=1;exitX=0;exitY=1;exitDx=0;exitDy=0;strokeColor=#000000;fontSize=9;" parent="1" source="499" edge="1">
                    <mxGeometry relative="1" as="geometry">
                        <mxPoint x="1191.3333333333333" y="1048.6666666666667" as="targetPoint"/>
                    </mxGeometry>
                </mxCell>
                <mxCell id="499" value="" style="ellipse;whiteSpace=wrap;html=1;aspect=fixed;fillStyle=auto;gradientDirection=south;strokeColor=#000000;fillColor=#000000;" parent="1" vertex="1">
                    <mxGeometry x="1190" y="1040" width="10" height="10" as="geometry"/>
                </mxCell>
                <mxCell id="500" value="" style="endArrow=none;html=1;rounded=0;exitX=1;exitY=0.25;exitDx=0;exitDy=0;entryX=0;entryY=0.5;entryDx=0;entryDy=0;strokeColor=#000000;" parent="1" source="497" target="499" edge="1">
                    <mxGeometry relative="1" as="geometry">
                        <mxPoint x="1080" y="1060" as="sourcePoint"/>
                        <mxPoint x="1240" y="1060" as="targetPoint"/>
                    </mxGeometry>
                </mxCell>
                <mxCell id="501" value="" style="ellipse;whiteSpace=wrap;html=1;aspect=fixed;fillStyle=auto;gradientDirection=south;strokeColor=#000000;fillColor=none;" parent="1" vertex="1">
                    <mxGeometry x="1190" y="1060" width="10" height="10" as="geometry"/>
                </mxCell>
                <mxCell id="502" value="" style="endArrow=none;html=1;rounded=0;exitX=1;exitY=0.25;exitDx=0;exitDy=0;entryX=0;entryY=0.5;entryDx=0;entryDy=0;strokeColor=#000000;" parent="1" source="497" target="501" edge="1">
                    <mxGeometry relative="1" as="geometry">
                        <mxPoint x="1160" y="1112.34" as="sourcePoint"/>
                        <mxPoint x="1238.3" y="1090" as="targetPoint"/>
                    </mxGeometry>
                </mxCell>
                <mxCell id="503" value="" style="ellipse;whiteSpace=wrap;html=1;aspect=fixed;fillStyle=auto;gradientDirection=south;strokeColor=#000000;fillColor=none;" parent="1" vertex="1">
                    <mxGeometry x="1190" y="1080" width="10" height="10" as="geometry"/>
                </mxCell>
                <mxCell id="504" value="" style="endArrow=none;html=1;rounded=0;exitX=1;exitY=0.25;exitDx=0;exitDy=0;entryX=0;entryY=0.5;entryDx=0;entryDy=0;strokeColor=#000000;" parent="1" source="497" target="503" edge="1">
                    <mxGeometry relative="1" as="geometry">
                        <mxPoint x="1160" y="1142.34" as="sourcePoint"/>
                        <mxPoint x="1238.3" y="1120" as="targetPoint"/>
                    </mxGeometry>
                </mxCell>
                <mxCell id="505" value="idPedido" style="text;html=1;strokeColor=none;fillColor=none;align=center;verticalAlign=middle;whiteSpace=wrap;rounded=0;fillStyle=auto;strokeWidth=1;fontSize=9;container=0;movable=1;resizable=1;rotatable=1;deletable=1;editable=1;connectable=1;" parent="1" vertex="1">
                    <mxGeometry x="1200" y="1040" width="60" height="10" as="geometry"/>
                </mxCell>
                <mxCell id="506" value="idProducto" style="text;html=1;strokeColor=none;fillColor=none;align=center;verticalAlign=middle;whiteSpace=wrap;rounded=0;fillStyle=auto;strokeWidth=1;fontSize=9;" parent="1" vertex="1">
                    <mxGeometry x="1200" y="1060" width="60" height="10" as="geometry"/>
                </mxCell>
                <mxCell id="507" value="Cantidad" style="text;html=1;strokeColor=none;fillColor=none;align=center;verticalAlign=middle;whiteSpace=wrap;rounded=0;fillStyle=auto;strokeWidth=1;fontSize=9;" parent="1" vertex="1">
                    <mxGeometry x="1200" y="1080" width="60" height="10" as="geometry"/>
                </mxCell>
                <mxCell id="523" value="Roles" style="whiteSpace=wrap;html=1;align=center;fillStyle=auto;gradientDirection=south;strokeColor=#FF33FF;" parent="1" vertex="1">
                    <mxGeometry x="409.99999999999994" y="76.25" width="100" height="20" as="geometry"/>
                </mxCell>
                <mxCell id="524" style="edgeStyle=none;html=1;exitX=0;exitY=1;exitDx=0;exitDy=0;strokeColor=#000000;fontSize=9;" parent="1" source="525" edge="1">
                    <mxGeometry relative="1" as="geometry">
                        <mxPoint x="535.333333333333" y="74.91666666666674" as="targetPoint"/>
                    </mxGeometry>
                </mxCell>
                <mxCell id="525" value="" style="ellipse;whiteSpace=wrap;html=1;aspect=fixed;fillStyle=auto;gradientDirection=south;strokeColor=#000000;fillColor=#000000;" parent="1" vertex="1">
                    <mxGeometry x="534" y="66.25" width="10" height="10" as="geometry"/>
                </mxCell>
                <mxCell id="526" value="" style="endArrow=none;html=1;rounded=0;exitX=1;exitY=0.25;exitDx=0;exitDy=0;entryX=0;entryY=0.5;entryDx=0;entryDy=0;strokeColor=#000000;" parent="1" source="523" target="525" edge="1">
                    <mxGeometry relative="1" as="geometry">
                        <mxPoint x="423.99999999999994" y="86.25" as="sourcePoint"/>
                        <mxPoint x="584" y="86.25" as="targetPoint"/>
                    </mxGeometry>
                </mxCell>
                <mxCell id="527" value="" style="ellipse;whiteSpace=wrap;html=1;aspect=fixed;fillStyle=auto;gradientDirection=south;strokeColor=#000000;fillColor=none;" parent="1" vertex="1">
                    <mxGeometry x="534" y="86.25" width="10" height="10" as="geometry"/>
                </mxCell>
                <mxCell id="528" value="" style="endArrow=none;html=1;rounded=0;exitX=1;exitY=0.25;exitDx=0;exitDy=0;entryX=0;entryY=0.5;entryDx=0;entryDy=0;strokeColor=#000000;" parent="1" source="523" target="527" edge="1">
                    <mxGeometry relative="1" as="geometry">
                        <mxPoint x="503.99999999999994" y="138.58999999999992" as="sourcePoint"/>
                        <mxPoint x="582.3" y="116.25" as="targetPoint"/>
                    </mxGeometry>
                </mxCell>
                <mxCell id="529" value="idRol" style="text;html=1;strokeColor=none;fillColor=none;align=center;verticalAlign=middle;whiteSpace=wrap;rounded=0;fillStyle=auto;strokeWidth=1;fontSize=9;container=0;movable=1;resizable=1;rotatable=1;deletable=1;editable=1;connectable=1;" parent="1" vertex="1">
                    <mxGeometry x="544" y="66.25" width="60" height="10" as="geometry"/>
                </mxCell>
                <mxCell id="530" value="nombreRol" style="text;html=1;strokeColor=none;fillColor=none;align=center;verticalAlign=middle;whiteSpace=wrap;rounded=0;fillStyle=auto;strokeWidth=1;fontSize=9;" parent="1" vertex="1">
                    <mxGeometry x="544" y="86.25" width="60" height="10" as="geometry"/>
                </mxCell>
                <mxCell id="531" value="UsuariosRoles" style="whiteSpace=wrap;html=1;align=center;fillStyle=auto;strokeColor=#FF33FF;fillColor=none;gradientColor=none;gradientDirection=south;" parent="1" vertex="1">
                    <mxGeometry x="410" y="230" width="100" height="20" as="geometry"/>
                </mxCell>
                <mxCell id="532" style="edgeStyle=none;html=1;exitX=0;exitY=1;exitDx=0;exitDy=0;strokeColor=#000000;fontSize=9;" parent="1" source="533" edge="1">
                    <mxGeometry relative="1" as="geometry">
                        <mxPoint x="535.333333333333" y="238.66666666666674" as="targetPoint"/>
                    </mxGeometry>
                </mxCell>
                <mxCell id="533" value="" style="ellipse;whiteSpace=wrap;html=1;aspect=fixed;fillStyle=auto;gradientDirection=west;strokeColor=#000000;fillColor=#000000;gradientColor=default;" parent="1" vertex="1">
                    <mxGeometry x="534" y="230" width="10" height="10" as="geometry"/>
                </mxCell>
                <mxCell id="534" value="" style="endArrow=none;html=1;rounded=0;exitX=1;exitY=0.25;exitDx=0;exitDy=0;entryX=0;entryY=0.5;entryDx=0;entryDy=0;strokeColor=#000000;" parent="1" source="531" target="533" edge="1">
                    <mxGeometry relative="1" as="geometry">
                        <mxPoint x="424" y="250" as="sourcePoint"/>
                        <mxPoint x="584" y="250" as="targetPoint"/>
                    </mxGeometry>
                </mxCell>
                <mxCell id="535" value="" style="ellipse;whiteSpace=wrap;html=1;aspect=fixed;fillStyle=auto;gradientDirection=west;strokeColor=#000000;fillColor=default;gradientColor=default;" parent="1" vertex="1">
                    <mxGeometry x="534" y="250" width="10" height="10" as="geometry"/>
                </mxCell>
                <mxCell id="536" value="" style="endArrow=none;html=1;rounded=0;exitX=1;exitY=0.25;exitDx=0;exitDy=0;entryX=0;entryY=0.5;entryDx=0;entryDy=0;strokeColor=#000000;" parent="1" source="531" target="535" edge="1">
                    <mxGeometry relative="1" as="geometry">
                        <mxPoint x="504" y="302.3399999999999" as="sourcePoint"/>
                        <mxPoint x="582.3" y="280" as="targetPoint"/>
                    </mxGeometry>
                </mxCell>
                <mxCell id="537" value="idUsuario" style="text;html=1;strokeColor=none;fillColor=none;align=center;verticalAlign=middle;whiteSpace=wrap;rounded=0;fillStyle=auto;strokeWidth=1;fontSize=9;container=0;movable=1;resizable=1;rotatable=1;deletable=1;editable=1;connectable=1;" parent="1" vertex="1">
                    <mxGeometry x="544" y="230" width="60" height="10" as="geometry"/>
                </mxCell>
                <mxCell id="538" value="idRol" style="text;html=1;strokeColor=none;fillColor=none;align=center;verticalAlign=middle;whiteSpace=wrap;rounded=0;fillStyle=auto;strokeWidth=1;fontSize=9;" parent="1" vertex="1">
                    <mxGeometry x="544" y="250" width="60" height="10" as="geometry"/>
                </mxCell>
                <mxCell id="721" style="edgeStyle=orthogonalEdgeStyle;rounded=0;html=1;exitX=0.5;exitY=1;exitDx=0;exitDy=0;entryX=0.5;entryY=0;entryDx=0;entryDy=0;strokeColor=#FF33FF;endArrow=none;endFill=0;" edge="1" parent="1" source="547" target="701">
                    <mxGeometry relative="1" as="geometry"/>
                </mxCell>
                <mxCell id="722" value="N" style="edgeLabel;html=1;align=center;verticalAlign=middle;resizable=0;points=[];" vertex="1" connectable="0" parent="721">
                    <mxGeometry x="0.9176" y="1" relative="1" as="geometry">
                        <mxPoint x="7" y="-2" as="offset"/>
                    </mxGeometry>
                </mxCell>
                <mxCell id="547" value="1:N" style="rhombus;whiteSpace=wrap;html=1;fillColor=none;strokeColor=#FF33FF;fillStyle=auto;gradientColor=none;gradientDirection=south;" vertex="1" parent="1">
                    <mxGeometry x="460" y="556.25" width="40" height="40" as="geometry"/>
                </mxCell>
                <mxCell id="552" value="1:N" style="rhombus;whiteSpace=wrap;html=1;fillColor=none;strokeColor=#FF33FF;fillStyle=auto;gradientColor=none;gradientDirection=south;" vertex="1" parent="1">
                    <mxGeometry x="60.000000000000014" y="748.75" width="40" height="40" as="geometry"/>
                </mxCell>
                <mxCell id="553" value="1:N" style="rhombus;whiteSpace=wrap;html=1;fillColor=none;strokeColor=#FF33FF;fillStyle=auto;gradientColor=none;gradientDirection=south;" vertex="1" parent="1">
                    <mxGeometry x="70.00000000000001" y="756.25" width="40" height="40" as="geometry"/>
                </mxCell>
                <mxCell id="554" value="1:N" style="rhombus;whiteSpace=wrap;html=1;fillColor=none;strokeColor=#FF33FF;fillStyle=auto;gradientColor=none;gradientDirection=south;" vertex="1" parent="1">
                    <mxGeometry x="80.00000000000001" y="766.25" width="40" height="40" as="geometry"/>
                </mxCell>
                <mxCell id="555" value="1:N" style="rhombus;whiteSpace=wrap;html=1;fillColor=none;strokeColor=#FF33FF;fillStyle=auto;gradientColor=none;gradientDirection=south;" vertex="1" parent="1">
                    <mxGeometry x="90.00000000000001" y="776.25" width="40" height="40" as="geometry"/>
                </mxCell>
                <mxCell id="556" value="1:N" style="rhombus;whiteSpace=wrap;html=1;fillColor=none;strokeColor=#FF33FF;fillStyle=auto;gradientColor=none;gradientDirection=south;" vertex="1" parent="1">
                    <mxGeometry x="100.00000000000001" y="786.25" width="40" height="40" as="geometry"/>
                </mxCell>
                <mxCell id="557" value="1:N" style="rhombus;whiteSpace=wrap;html=1;fillColor=none;strokeColor=#FF33FF;fillStyle=auto;gradientColor=none;gradientDirection=south;" vertex="1" parent="1">
                    <mxGeometry x="110.00000000000001" y="796.25" width="40" height="40" as="geometry"/>
                </mxCell>
                <mxCell id="558" value="1:N" style="rhombus;whiteSpace=wrap;html=1;fillColor=none;strokeColor=#FF33FF;fillStyle=auto;gradientColor=none;gradientDirection=south;" vertex="1" parent="1">
                    <mxGeometry x="120.00000000000001" y="806.25" width="40" height="40" as="geometry"/>
                </mxCell>
                <mxCell id="559" value="1:N" style="rhombus;whiteSpace=wrap;html=1;fillColor=none;strokeColor=#FF33FF;fillStyle=auto;gradientColor=none;gradientDirection=south;" vertex="1" parent="1">
                    <mxGeometry x="130" y="816.25" width="40" height="40" as="geometry"/>
                </mxCell>
                <mxCell id="560" value="1:N" style="rhombus;whiteSpace=wrap;html=1;fillColor=none;strokeColor=#FF33FF;fillStyle=auto;gradientColor=none;gradientDirection=south;" vertex="1" parent="1">
                    <mxGeometry x="140" y="826.25" width="40" height="40" as="geometry"/>
                </mxCell>
                <mxCell id="561" value="1:N" style="rhombus;whiteSpace=wrap;html=1;fillColor=none;strokeColor=#FF33FF;fillStyle=auto;gradientColor=none;gradientDirection=south;" vertex="1" parent="1">
                    <mxGeometry x="150" y="836.25" width="40" height="40" as="geometry"/>
                </mxCell>
                <mxCell id="562" value="1:N" style="rhombus;whiteSpace=wrap;html=1;fillColor=none;strokeColor=#FF33FF;fillStyle=auto;gradientColor=none;gradientDirection=south;" vertex="1" parent="1">
                    <mxGeometry x="160" y="846.25" width="40" height="40" as="geometry"/>
                </mxCell>
                <mxCell id="563" value="1:N" style="rhombus;whiteSpace=wrap;html=1;fillColor=none;strokeColor=#FF33FF;fillStyle=auto;gradientColor=none;gradientDirection=south;" vertex="1" parent="1">
                    <mxGeometry x="170" y="856.25" width="40" height="40" as="geometry"/>
                </mxCell>
                <mxCell id="564" value="1:N" style="rhombus;whiteSpace=wrap;html=1;fillColor=none;strokeColor=#FF33FF;fillStyle=auto;gradientColor=none;gradientDirection=south;" vertex="1" parent="1">
                    <mxGeometry x="180" y="866.25" width="40" height="40" as="geometry"/>
                </mxCell>
                <mxCell id="724" style="edgeStyle=orthogonalEdgeStyle;rounded=0;html=1;exitX=1;exitY=0.5;exitDx=0;exitDy=0;entryX=0.25;entryY=1;entryDx=0;entryDy=0;strokeColor=#FF33FF;endArrow=none;endFill=0;" edge="1" parent="1" source="565" target="701">
                    <mxGeometry relative="1" as="geometry"/>
                </mxCell>
                <mxCell id="726" value="N" style="edgeLabel;html=1;align=center;verticalAlign=middle;resizable=0;points=[];" vertex="1" connectable="0" parent="724">
                    <mxGeometry x="0.9352" y="1" relative="1" as="geometry">
                        <mxPoint x="10" y="2" as="offset"/>
                    </mxGeometry>
                </mxCell>
                <mxCell id="565" value="1:N" style="rhombus;whiteSpace=wrap;html=1;fillColor=none;strokeColor=#FF33FF;fillStyle=auto;gradientColor=none;gradientDirection=south;" vertex="1" parent="1">
                    <mxGeometry x="410" y="795" width="40" height="40" as="geometry"/>
                </mxCell>
                <mxCell id="690" style="edgeStyle=orthogonalEdgeStyle;rounded=0;html=1;exitX=0.5;exitY=1;exitDx=0;exitDy=0;entryX=0.5;entryY=0;entryDx=0;entryDy=0;strokeColor=#FF33FF;endArrow=none;endFill=0;" edge="1" parent="1" source="566" target="103">
                    <mxGeometry relative="1" as="geometry"/>
                </mxCell>
                <mxCell id="698" value="N" style="edgeLabel;html=1;align=center;verticalAlign=middle;resizable=0;points=[];" vertex="1" connectable="0" parent="690">
                    <mxGeometry x="0.8237" relative="1" as="geometry">
                        <mxPoint x="10" y="3" as="offset"/>
                    </mxGeometry>
                </mxCell>
                <mxCell id="697" style="edgeStyle=orthogonalEdgeStyle;rounded=0;html=1;exitX=0.5;exitY=0;exitDx=0;exitDy=0;entryX=0;entryY=0.75;entryDx=0;entryDy=0;strokeColor=#FF33FF;endArrow=none;endFill=0;" edge="1" parent="1" source="566" target="7">
                    <mxGeometry relative="1" as="geometry"/>
                </mxCell>
                <mxCell id="699" value="1" style="edgeLabel;html=1;align=center;verticalAlign=middle;resizable=0;points=[];" vertex="1" connectable="0" parent="697">
                    <mxGeometry x="0.8879" relative="1" as="geometry">
                        <mxPoint x="-1" y="-10" as="offset"/>
                    </mxGeometry>
                </mxCell>
                <mxCell id="566" value="1:N" style="rhombus;whiteSpace=wrap;html=1;fillColor=none;strokeColor=#FF33FF;fillStyle=auto;gradientColor=none;gradientDirection=south;" vertex="1" parent="1">
                    <mxGeometry x="280" y="493.75" width="40" height="40" as="geometry"/>
                </mxCell>
                <mxCell id="571" style="edgeStyle=orthogonalEdgeStyle;rounded=0;html=1;exitX=0.5;exitY=1;exitDx=0;exitDy=0;entryX=0.25;entryY=0;entryDx=0;entryDy=0;strokeColor=#FF33FF;endArrow=none;endFill=0;" edge="1" parent="1" source="570" target="7">
                    <mxGeometry relative="1" as="geometry"/>
                </mxCell>
                <mxCell id="578" value="1" style="edgeLabel;html=1;align=center;verticalAlign=middle;resizable=0;points=[];" vertex="1" connectable="0" parent="571">
                    <mxGeometry x="0.7691" relative="1" as="geometry">
                        <mxPoint x="-5" as="offset"/>
                    </mxGeometry>
                </mxCell>
                <mxCell id="572" style="edgeStyle=orthogonalEdgeStyle;rounded=0;html=1;exitX=0.5;exitY=0;exitDx=0;exitDy=0;entryX=0.5;entryY=1;entryDx=0;entryDy=0;strokeColor=#FF33FF;endArrow=none;endFill=0;" edge="1" parent="1" source="570" target="531">
                    <mxGeometry relative="1" as="geometry"/>
                </mxCell>
                <mxCell id="575" value="N" style="edgeLabel;html=1;align=center;verticalAlign=middle;resizable=0;points=[];" vertex="1" connectable="0" parent="572">
                    <mxGeometry x="0.8455" relative="1" as="geometry">
                        <mxPoint x="-9" y="4" as="offset"/>
                    </mxGeometry>
                </mxCell>
                <mxCell id="570" value="1:N" style="rhombus;whiteSpace=wrap;html=1;fillColor=none;strokeColor=#FF33FF;fillStyle=auto;gradientColor=none;gradientDirection=south;" vertex="1" parent="1">
                    <mxGeometry x="440" y="327.5" width="40" height="40" as="geometry"/>
                </mxCell>
                <mxCell id="581" style="edgeStyle=orthogonalEdgeStyle;rounded=0;html=1;exitX=0.5;exitY=1;exitDx=0;exitDy=0;entryX=0.5;entryY=0;entryDx=0;entryDy=0;strokeColor=#FF33FF;endArrow=none;endFill=0;" edge="1" parent="1" source="580" target="531">
                    <mxGeometry relative="1" as="geometry"/>
                </mxCell>
                <mxCell id="583" value="N" style="edgeLabel;html=1;align=center;verticalAlign=middle;resizable=0;points=[];" vertex="1" connectable="0" parent="581">
                    <mxGeometry x="0.7156" y="-1" relative="1" as="geometry">
                        <mxPoint x="-9" y="-1" as="offset"/>
                    </mxGeometry>
                </mxCell>
                <mxCell id="582" style="edgeStyle=orthogonalEdgeStyle;rounded=0;html=1;exitX=0.5;exitY=0;exitDx=0;exitDy=0;entryX=0.5;entryY=1;entryDx=0;entryDy=0;strokeColor=#FF33FF;endArrow=none;endFill=0;" edge="1" parent="1" source="580" target="523">
                    <mxGeometry relative="1" as="geometry"/>
                </mxCell>
                <mxCell id="585" value="1" style="edgeLabel;html=1;align=center;verticalAlign=middle;resizable=0;points=[];" vertex="1" connectable="0" parent="582">
                    <mxGeometry x="0.8434" relative="1" as="geometry">
                        <mxPoint x="-5" y="5" as="offset"/>
                    </mxGeometry>
                </mxCell>
                <mxCell id="580" value="1:N" style="rhombus;whiteSpace=wrap;html=1;fillColor=none;strokeColor=#FF33FF;fillStyle=auto;gradientColor=none;gradientDirection=south;" vertex="1" parent="1">
                    <mxGeometry x="440" y="140" width="40" height="40" as="geometry"/>
                </mxCell>
                <mxCell id="624" style="edgeStyle=none;html=1;exitX=0;exitY=1;exitDx=0;exitDy=0;strokeColor=#000000;fontSize=9;" edge="1" source="625" parent="1">
                    <mxGeometry relative="1" as="geometry">
                        <mxPoint x="1291.3333333333335" y="428.66666666666674" as="targetPoint"/>
                    </mxGeometry>
                </mxCell>
                <mxCell id="625" value="" style="ellipse;whiteSpace=wrap;html=1;aspect=fixed;fillStyle=auto;gradientDirection=south;strokeColor=#000000;fillColor=#000000;" vertex="1" parent="1">
                    <mxGeometry x="1290" y="420" width="10" height="10" as="geometry"/>
                </mxCell>
                <mxCell id="626" value="" style="endArrow=none;html=1;rounded=0;exitX=1;exitY=0.25;exitDx=0;exitDy=0;entryX=0;entryY=0.5;entryDx=0;entryDy=0;strokeColor=#000000;" edge="1" source="640" target="625" parent="1">
                    <mxGeometry relative="1" as="geometry">
                        <mxPoint x="1180" y="440" as="sourcePoint"/>
                        <mxPoint x="1340" y="440" as="targetPoint"/>
                    </mxGeometry>
                </mxCell>
                <mxCell id="627" value="" style="ellipse;whiteSpace=wrap;html=1;aspect=fixed;fillStyle=auto;gradientDirection=west;strokeColor=#000000;fillColor=default;gradientColor=default;" vertex="1" parent="1">
                    <mxGeometry x="1290" y="440" width="10" height="10" as="geometry"/>
                </mxCell>
                <mxCell id="628" value="" style="endArrow=none;html=1;rounded=0;exitX=1;exitY=0.25;exitDx=0;exitDy=0;entryX=0;entryY=0.5;entryDx=0;entryDy=0;strokeColor=#000000;" edge="1" source="640" target="627" parent="1">
                    <mxGeometry relative="1" as="geometry">
                        <mxPoint x="1260" y="492.34" as="sourcePoint"/>
                        <mxPoint x="1338.3" y="470" as="targetPoint"/>
                    </mxGeometry>
                </mxCell>
                <mxCell id="629" value="" style="ellipse;whiteSpace=wrap;html=1;aspect=fixed;fillStyle=auto;gradientDirection=south;strokeColor=#000000;fillColor=none;" vertex="1" parent="1">
                    <mxGeometry x="1290" y="460" width="10" height="10" as="geometry"/>
                </mxCell>
                <mxCell id="630" value="" style="endArrow=none;html=1;rounded=0;exitX=1;exitY=0.25;exitDx=0;exitDy=0;entryX=0;entryY=0.5;entryDx=0;entryDy=0;strokeColor=#000000;" edge="1" source="640" target="629" parent="1">
                    <mxGeometry relative="1" as="geometry">
                        <mxPoint x="1260" y="522.3399999999999" as="sourcePoint"/>
                        <mxPoint x="1338.3" y="500" as="targetPoint"/>
                    </mxGeometry>
                </mxCell>
                <mxCell id="631" value="" style="ellipse;whiteSpace=wrap;html=1;aspect=fixed;fillStyle=auto;gradientDirection=south;strokeColor=#000000;fillColor=none;" vertex="1" parent="1">
                    <mxGeometry x="1290" y="480" width="10" height="10" as="geometry"/>
                </mxCell>
                <mxCell id="632" value="" style="endArrow=none;html=1;rounded=0;exitX=1;exitY=0.25;exitDx=0;exitDy=0;entryX=0;entryY=0.5;entryDx=0;entryDy=0;strokeColor=#000000;" edge="1" source="640" target="631" parent="1">
                    <mxGeometry relative="1" as="geometry">
                        <mxPoint x="1260" y="552.3399999999999" as="sourcePoint"/>
                        <mxPoint x="1338.3" y="530" as="targetPoint"/>
                    </mxGeometry>
                </mxCell>
                <mxCell id="633" value="" style="ellipse;whiteSpace=wrap;html=1;aspect=fixed;fillStyle=auto;gradientDirection=south;strokeColor=#000000;fillColor=none;" vertex="1" parent="1">
                    <mxGeometry x="1290" y="500" width="10" height="10" as="geometry"/>
                </mxCell>
                <mxCell id="634" value="" style="endArrow=none;html=1;rounded=0;exitX=1;exitY=0.25;exitDx=0;exitDy=0;entryX=0;entryY=0.5;entryDx=0;entryDy=0;strokeColor=#000000;" edge="1" source="640" target="633" parent="1">
                    <mxGeometry relative="1" as="geometry">
                        <mxPoint x="1260" y="582.3399999999999" as="sourcePoint"/>
                        <mxPoint x="1338.3" y="560" as="targetPoint"/>
                    </mxGeometry>
                </mxCell>
                <mxCell id="635" value="idChat" style="text;html=1;strokeColor=none;fillColor=none;align=center;verticalAlign=middle;whiteSpace=wrap;rounded=0;fillStyle=auto;strokeWidth=1;fontSize=9;container=0;movable=1;resizable=1;rotatable=1;deletable=1;editable=1;connectable=1;" vertex="1" parent="1">
                    <mxGeometry x="1300" y="420" width="60" height="10" as="geometry"/>
                </mxCell>
                <mxCell id="636" value="idUsuario" style="text;html=1;strokeColor=none;fillColor=none;align=center;verticalAlign=middle;whiteSpace=wrap;rounded=0;fillStyle=auto;strokeWidth=1;fontSize=9;" vertex="1" parent="1">
                    <mxGeometry x="1300" y="440" width="60" height="10" as="geometry"/>
                </mxCell>
                <mxCell id="637" value="fecha" style="text;html=1;strokeColor=none;fillColor=none;align=center;verticalAlign=middle;whiteSpace=wrap;rounded=0;fillStyle=auto;strokeWidth=1;fontSize=9;" vertex="1" parent="1">
                    <mxGeometry x="1300" y="460" width="60" height="10" as="geometry"/>
                </mxCell>
                <mxCell id="638" value="hora" style="text;html=1;strokeColor=none;fillColor=none;align=center;verticalAlign=middle;whiteSpace=wrap;rounded=0;fillStyle=auto;strokeWidth=1;fontSize=9;" vertex="1" parent="1">
                    <mxGeometry x="1300" y="480" width="60" height="10" as="geometry"/>
                </mxCell>
                <mxCell id="639" value="mensaje" style="text;html=1;strokeColor=none;fillColor=none;align=center;verticalAlign=middle;whiteSpace=wrap;rounded=0;fillStyle=auto;strokeWidth=1;fontSize=9;" vertex="1" parent="1">
                    <mxGeometry x="1300" y="500" width="60" height="10" as="geometry"/>
                </mxCell>
                <mxCell id="640" value="Chats" style="whiteSpace=wrap;html=1;align=center;fillStyle=auto;strokeColor=#000000;fillColor=none;gradientColor=none;gradientDirection=south;" vertex="1" parent="1">
                    <mxGeometry x="1160" y="460" width="100" height="20" as="geometry"/>
                </mxCell>
                <mxCell id="641" value="Productos" style="whiteSpace=wrap;html=1;align=center;fillStyle=auto;strokeColor=#FF33FF;fillColor=none;gradientColor=none;gradientDirection=south;" vertex="1" parent="1">
                    <mxGeometry x="570" y="1006.25" width="100" height="20" as="geometry"/>
                </mxCell>
                <mxCell id="642" style="edgeStyle=none;html=1;exitX=0;exitY=1;exitDx=0;exitDy=0;strokeColor=#000000;fontSize=9;" edge="1" source="643" parent="1">
                    <mxGeometry relative="1" as="geometry">
                        <mxPoint x="701.3333333333333" y="974.9166666666667" as="targetPoint"/>
                    </mxGeometry>
                </mxCell>
                <mxCell id="643" value="" style="ellipse;whiteSpace=wrap;html=1;aspect=fixed;fillStyle=auto;gradientDirection=south;strokeColor=#000000;fillColor=#000000;" vertex="1" parent="1">
                    <mxGeometry x="700" y="966.25" width="10" height="10" as="geometry"/>
                </mxCell>
                <mxCell id="644" value="" style="endArrow=none;html=1;rounded=0;exitX=1;exitY=0.25;exitDx=0;exitDy=0;entryX=0;entryY=0.5;entryDx=0;entryDy=0;strokeColor=#000000;" edge="1" source="641" target="643" parent="1">
                    <mxGeometry relative="1" as="geometry">
                        <mxPoint x="590" y="986.25" as="sourcePoint"/>
                        <mxPoint x="750" y="986.25" as="targetPoint"/>
                    </mxGeometry>
                </mxCell>
                <mxCell id="645" value="" style="ellipse;whiteSpace=wrap;html=1;aspect=fixed;fillStyle=auto;gradientDirection=west;strokeColor=#000000;fillColor=default;gradientColor=default;" vertex="1" parent="1">
                    <mxGeometry x="700" y="986.25" width="10" height="10" as="geometry"/>
                </mxCell>
                <mxCell id="646" value="" style="endArrow=none;html=1;rounded=0;exitX=1;exitY=0.25;exitDx=0;exitDy=0;entryX=0;entryY=0.5;entryDx=0;entryDy=0;strokeColor=#000000;" edge="1" source="641" target="645" parent="1">
                    <mxGeometry relative="1" as="geometry">
                        <mxPoint x="670" y="1038.59" as="sourcePoint"/>
                        <mxPoint x="748.3" y="1016.25" as="targetPoint"/>
                    </mxGeometry>
                </mxCell>
                <mxCell id="647" value="" style="ellipse;whiteSpace=wrap;html=1;aspect=fixed;fillStyle=auto;gradientDirection=west;strokeColor=#000000;fillColor=default;gradientColor=default;" vertex="1" parent="1">
                    <mxGeometry x="700" y="1006.25" width="10" height="10" as="geometry"/>
                </mxCell>
                <mxCell id="648" value="" style="endArrow=none;html=1;rounded=0;exitX=1;exitY=0.25;exitDx=0;exitDy=0;entryX=0;entryY=0.5;entryDx=0;entryDy=0;strokeColor=#000000;" edge="1" source="641" target="647" parent="1">
                    <mxGeometry relative="1" as="geometry">
                        <mxPoint x="670" y="1068.59" as="sourcePoint"/>
                        <mxPoint x="748.3" y="1046.25" as="targetPoint"/>
                    </mxGeometry>
                </mxCell>
                <mxCell id="649" value="" style="ellipse;whiteSpace=wrap;html=1;aspect=fixed;fillStyle=auto;gradientDirection=south;strokeColor=#000000;fillColor=none;" vertex="1" parent="1">
                    <mxGeometry x="700" y="1026.25" width="10" height="10" as="geometry"/>
                </mxCell>
                <mxCell id="650" value="" style="endArrow=none;html=1;rounded=0;exitX=1;exitY=0.25;exitDx=0;exitDy=0;entryX=0;entryY=0.5;entryDx=0;entryDy=0;strokeColor=#000000;" edge="1" source="641" target="649" parent="1">
                    <mxGeometry relative="1" as="geometry">
                        <mxPoint x="670" y="1098.59" as="sourcePoint"/>
                        <mxPoint x="748.3" y="1076.25" as="targetPoint"/>
                    </mxGeometry>
                </mxCell>
                <mxCell id="651" value="" style="ellipse;whiteSpace=wrap;html=1;aspect=fixed;fillStyle=auto;gradientDirection=south;strokeColor=#000000;fillColor=none;" vertex="1" parent="1">
                    <mxGeometry x="700" y="1046.25" width="10" height="10" as="geometry"/>
                </mxCell>
                <mxCell id="652" value="" style="endArrow=none;html=1;rounded=0;exitX=1;exitY=0.25;exitDx=0;exitDy=0;entryX=0;entryY=0.5;entryDx=0;entryDy=0;strokeColor=#000000;" edge="1" source="641" target="651" parent="1">
                    <mxGeometry relative="1" as="geometry">
                        <mxPoint x="670" y="1128.59" as="sourcePoint"/>
                        <mxPoint x="748.3" y="1106.25" as="targetPoint"/>
                    </mxGeometry>
                </mxCell>
                <mxCell id="653" value="idProducto" style="text;html=1;strokeColor=none;fillColor=none;align=center;verticalAlign=middle;whiteSpace=wrap;rounded=0;fillStyle=auto;strokeWidth=1;fontSize=9;container=0;movable=1;resizable=1;rotatable=1;deletable=1;editable=1;connectable=1;" vertex="1" parent="1">
                    <mxGeometry x="710" y="966.25" width="60" height="10" as="geometry"/>
                </mxCell>
                <mxCell id="654" value="idPedido" style="text;html=1;strokeColor=none;fillColor=none;align=center;verticalAlign=middle;whiteSpace=wrap;rounded=0;fillStyle=auto;strokeWidth=1;fontSize=9;" vertex="1" parent="1">
                    <mxGeometry x="710" y="986.25" width="60" height="10" as="geometry"/>
                </mxCell>
                <mxCell id="655" value="idCategoria" style="text;html=1;strokeColor=none;fillColor=none;align=center;verticalAlign=middle;whiteSpace=wrap;rounded=0;fillStyle=auto;strokeWidth=1;fontSize=9;" vertex="1" parent="1">
                    <mxGeometry x="710" y="1006.25" width="60" height="10" as="geometry"/>
                </mxCell>
                <mxCell id="656" value="nombre" style="text;html=1;strokeColor=none;fillColor=none;align=center;verticalAlign=middle;whiteSpace=wrap;rounded=0;fillStyle=auto;strokeWidth=1;fontSize=9;" vertex="1" parent="1">
                    <mxGeometry x="710" y="1026.25" width="60" height="10" as="geometry"/>
                </mxCell>
                <mxCell id="657" value="precio" style="text;html=1;strokeColor=none;fillColor=none;align=center;verticalAlign=middle;whiteSpace=wrap;rounded=0;fillStyle=auto;strokeWidth=1;fontSize=9;" vertex="1" parent="1">
                    <mxGeometry x="710" y="1046.25" width="60" height="10" as="geometry"/>
                </mxCell>
                <mxCell id="658" value="" style="ellipse;whiteSpace=wrap;html=1;aspect=fixed;fillStyle=auto;gradientDirection=south;strokeColor=#000000;fillColor=none;" vertex="1" parent="1">
                    <mxGeometry x="700" y="1063.75" width="10" height="10" as="geometry"/>
                </mxCell>
                <mxCell id="659" value="" style="endArrow=none;html=1;rounded=0;exitX=1;exitY=0.25;exitDx=0;exitDy=0;entryX=0;entryY=0.5;entryDx=0;entryDy=0;strokeColor=#000000;" edge="1" source="641" target="658" parent="1">
                    <mxGeometry relative="1" as="geometry">
                        <mxPoint x="670" y="1028.75" as="sourcePoint"/>
                        <mxPoint x="748.3" y="1123.75" as="targetPoint"/>
                    </mxGeometry>
                </mxCell>
                <mxCell id="660" value="descripcion" style="text;html=1;strokeColor=none;fillColor=none;align=center;verticalAlign=middle;whiteSpace=wrap;rounded=0;fillStyle=auto;strokeWidth=1;fontSize=9;" vertex="1" parent="1">
                    <mxGeometry x="710" y="1063.75" width="60" height="10" as="geometry"/>
                </mxCell>
                <mxCell id="661" style="edgeStyle=orthogonalEdgeStyle;rounded=0;html=1;exitX=0.5;exitY=0;exitDx=0;exitDy=0;entryX=0.5;entryY=1;entryDx=0;entryDy=0;strokeColor=#FF33FF;endArrow=none;endFill=0;" edge="1" source="663" target="689" parent="1">
                    <mxGeometry relative="1" as="geometry"/>
                </mxCell>
                <mxCell id="662" value="1" style="edgeLabel;html=1;align=center;verticalAlign=middle;resizable=0;points=[];" vertex="1" connectable="0" parent="661">
                    <mxGeometry x="0.75" y="-1" relative="1" as="geometry">
                        <mxPoint x="-11" y="1" as="offset"/>
                    </mxGeometry>
                </mxCell>
                <mxCell id="663" value="1:N" style="rhombus;whiteSpace=wrap;html=1;fillColor=none;strokeColor=#FF33FF;fillStyle=auto;gradientColor=none;gradientDirection=south;" vertex="1" parent="1">
                    <mxGeometry x="840" y="707.92" width="40" height="40" as="geometry"/>
                </mxCell>
                <mxCell id="664" style="edgeStyle=orthogonalEdgeStyle;rounded=0;html=1;exitX=0.5;exitY=1;exitDx=0;exitDy=0;entryX=0.75;entryY=0;entryDx=0;entryDy=0;strokeColor=#FF33FF;endArrow=none;endFill=0;" edge="1" source="668" target="641" parent="1">
                    <mxGeometry relative="1" as="geometry"/>
                </mxCell>
                <mxCell id="665" value="1" style="edgeLabel;html=1;align=center;verticalAlign=middle;resizable=0;points=[];" vertex="1" connectable="0" parent="664">
                    <mxGeometry x="0.8866" relative="1" as="geometry">
                        <mxPoint x="-6" y="-5" as="offset"/>
                    </mxGeometry>
                </mxCell>
                <mxCell id="666" style="edgeStyle=orthogonalEdgeStyle;rounded=0;html=1;exitX=0.5;exitY=0;exitDx=0;exitDy=0;entryX=0.5;entryY=1;entryDx=0;entryDy=0;strokeColor=#FF33FF;endArrow=none;endFill=0;" edge="1" source="668" target="678" parent="1">
                    <mxGeometry relative="1" as="geometry"/>
                </mxCell>
                <mxCell id="667" value="N" style="edgeLabel;html=1;align=center;verticalAlign=middle;resizable=0;points=[];" vertex="1" connectable="0" parent="666">
                    <mxGeometry x="0.9386" relative="1" as="geometry">
                        <mxPoint x="-6" y="7" as="offset"/>
                    </mxGeometry>
                </mxCell>
                <mxCell id="668" value="1:N" style="rhombus;whiteSpace=wrap;html=1;fillColor=none;strokeColor=#FF33FF;fillStyle=auto;gradientColor=none;gradientDirection=south;" vertex="1" parent="1">
                    <mxGeometry x="600" y="896.25" width="40" height="40" as="geometry"/>
                </mxCell>
                <mxCell id="669" style="edgeStyle=none;html=1;exitX=0;exitY=1;exitDx=0;exitDy=0;strokeColor=#000000;fontSize=9;" edge="1" source="670" parent="1">
                    <mxGeometry relative="1" as="geometry">
                        <mxPoint x="851.333333333333" y="848.6666666666667" as="targetPoint"/>
                    </mxGeometry>
                </mxCell>
                <mxCell id="670" value="" style="ellipse;whiteSpace=wrap;html=1;aspect=fixed;fillStyle=auto;gradientDirection=south;strokeColor=#000000;fillColor=#000000;" vertex="1" parent="1">
                    <mxGeometry x="850" y="840" width="10" height="10" as="geometry"/>
                </mxCell>
                <mxCell id="671" value="" style="endArrow=none;html=1;rounded=0;exitX=1;exitY=0.25;exitDx=0;exitDy=0;entryX=0;entryY=0.5;entryDx=0;entryDy=0;strokeColor=#000000;" edge="1" source="678" target="670" parent="1">
                    <mxGeometry relative="1" as="geometry">
                        <mxPoint x="740" y="860" as="sourcePoint"/>
                        <mxPoint x="900" y="860" as="targetPoint"/>
                    </mxGeometry>
                </mxCell>
                <mxCell id="672" value="" style="ellipse;whiteSpace=wrap;html=1;aspect=fixed;fillStyle=auto;gradientDirection=south;strokeColor=#000000;fillColor=none;" vertex="1" parent="1">
                    <mxGeometry x="850" y="860" width="10" height="10" as="geometry"/>
                </mxCell>
                <mxCell id="673" value="" style="endArrow=none;html=1;rounded=0;exitX=1;exitY=0.25;exitDx=0;exitDy=0;entryX=0;entryY=0.5;entryDx=0;entryDy=0;strokeColor=#000000;" edge="1" source="678" target="672" parent="1">
                    <mxGeometry relative="1" as="geometry">
                        <mxPoint x="820" y="912.3399999999999" as="sourcePoint"/>
                        <mxPoint x="898.3" y="890" as="targetPoint"/>
                    </mxGeometry>
                </mxCell>
                <mxCell id="674" value="idProducto" style="text;html=1;strokeColor=none;fillColor=none;align=center;verticalAlign=middle;whiteSpace=wrap;rounded=0;fillStyle=auto;strokeWidth=1;fontSize=9;container=0;movable=1;resizable=1;rotatable=1;deletable=1;editable=1;connectable=1;" vertex="1" parent="1">
                    <mxGeometry x="860" y="840" width="60" height="10" as="geometry"/>
                </mxCell>
                <mxCell id="675" value="idCategoria" style="text;html=1;strokeColor=none;fillColor=none;align=center;verticalAlign=middle;whiteSpace=wrap;rounded=0;fillStyle=auto;strokeWidth=1;fontSize=9;" vertex="1" parent="1">
                    <mxGeometry x="860" y="860" width="60" height="10" as="geometry"/>
                </mxCell>
                <mxCell id="676" style="edgeStyle=orthogonalEdgeStyle;rounded=0;html=1;exitX=0.5;exitY=0;exitDx=0;exitDy=0;strokeColor=#FF33FF;endArrow=none;endFill=0;entryX=0.5;entryY=1;entryDx=0;entryDy=0;" edge="1" source="678" target="663" parent="1">
                    <mxGeometry relative="1" as="geometry">
                        <mxPoint x="790" y="840" as="targetPoint"/>
                    </mxGeometry>
                </mxCell>
                <mxCell id="677" value="N" style="edgeLabel;html=1;align=center;verticalAlign=middle;resizable=0;points=[];" vertex="1" connectable="0" parent="676">
                    <mxGeometry x="-0.7692" relative="1" as="geometry">
                        <mxPoint x="-10" y="-5" as="offset"/>
                    </mxGeometry>
                </mxCell>
                <mxCell id="678" value="ProductosCategorias" style="whiteSpace=wrap;html=1;align=center;fillStyle=auto;strokeColor=#FF33FF;fillColor=none;gradientColor=none;gradientDirection=south;" vertex="1" parent="1">
                    <mxGeometry x="700" y="855" width="120" height="20" as="geometry"/>
                </mxCell>
                <mxCell id="679" style="edgeStyle=none;html=1;exitX=0;exitY=1;exitDx=0;exitDy=0;strokeColor=#000000;fontSize=9;" edge="1" source="680" parent="1">
                    <mxGeometry relative="1" as="geometry">
                        <mxPoint x="951.333333333333" y="570.7466666666667" as="targetPoint"/>
                    </mxGeometry>
                </mxCell>
                <mxCell id="680" value="" style="ellipse;whiteSpace=wrap;html=1;aspect=fixed;fillStyle=auto;gradientDirection=south;strokeColor=#000000;fillColor=#000000;" vertex="1" parent="1">
                    <mxGeometry x="950" y="562.0799999999999" width="10" height="10" as="geometry"/>
                </mxCell>
                <mxCell id="681" value="" style="endArrow=none;html=1;rounded=0;exitX=1;exitY=0.25;exitDx=0;exitDy=0;entryX=0;entryY=0.5;entryDx=0;entryDy=0;strokeColor=#000000;" edge="1" source="689" target="680" parent="1">
                    <mxGeometry relative="1" as="geometry">
                        <mxPoint x="840" y="582.0799999999999" as="sourcePoint"/>
                        <mxPoint x="1000" y="582.0799999999999" as="targetPoint"/>
                    </mxGeometry>
                </mxCell>
                <mxCell id="682" value="" style="ellipse;whiteSpace=wrap;html=1;aspect=fixed;fillStyle=auto;gradientDirection=south;strokeColor=#000000;fillColor=none;" vertex="1" parent="1">
                    <mxGeometry x="950" y="582.0799999999999" width="10" height="10" as="geometry"/>
                </mxCell>
                <mxCell id="683" value="" style="endArrow=none;html=1;rounded=0;exitX=1;exitY=0.25;exitDx=0;exitDy=0;entryX=0;entryY=0.5;entryDx=0;entryDy=0;strokeColor=#000000;" edge="1" source="689" target="682" parent="1">
                    <mxGeometry relative="1" as="geometry">
                        <mxPoint x="920" y="634.4199999999998" as="sourcePoint"/>
                        <mxPoint x="998.3" y="612.0799999999999" as="targetPoint"/>
                    </mxGeometry>
                </mxCell>
                <mxCell id="684" value="" style="ellipse;whiteSpace=wrap;html=1;aspect=fixed;fillStyle=auto;gradientDirection=south;strokeColor=#000000;fillColor=none;" vertex="1" parent="1">
                    <mxGeometry x="950" y="602.0799999999999" width="10" height="10" as="geometry"/>
                </mxCell>
                <mxCell id="685" value="" style="endArrow=none;html=1;rounded=0;exitX=1;exitY=0.25;exitDx=0;exitDy=0;entryX=0;entryY=0.5;entryDx=0;entryDy=0;strokeColor=#000000;" edge="1" source="689" target="684" parent="1">
                    <mxGeometry relative="1" as="geometry">
                        <mxPoint x="920" y="664.4199999999998" as="sourcePoint"/>
                        <mxPoint x="998.3" y="642.0799999999999" as="targetPoint"/>
                    </mxGeometry>
                </mxCell>
                <mxCell id="686" value="idCategoria" style="text;html=1;strokeColor=none;fillColor=none;align=center;verticalAlign=middle;whiteSpace=wrap;rounded=0;fillStyle=auto;strokeWidth=1;fontSize=9;container=0;movable=1;resizable=1;rotatable=1;deletable=1;editable=1;connectable=1;" vertex="1" parent="1">
                    <mxGeometry x="960" y="562.0799999999999" width="60" height="10" as="geometry"/>
                </mxCell>
                <mxCell id="687" value="nombre" style="text;html=1;strokeColor=none;fillColor=none;align=center;verticalAlign=middle;whiteSpace=wrap;rounded=0;fillStyle=auto;strokeWidth=1;fontSize=9;" vertex="1" parent="1">
                    <mxGeometry x="960" y="582.0799999999999" width="60" height="10" as="geometry"/>
                </mxCell>
                <mxCell id="688" value="descripcion" style="text;html=1;strokeColor=none;fillColor=none;align=center;verticalAlign=middle;whiteSpace=wrap;rounded=0;fillStyle=auto;strokeWidth=1;fontSize=9;" vertex="1" parent="1">
                    <mxGeometry x="960" y="602.0799999999999" width="60" height="10" as="geometry"/>
                </mxCell>
                <mxCell id="689" value="Categorias" style="whiteSpace=wrap;html=1;align=center;fillStyle=auto;strokeColor=#FF33FF;fillColor=none;gradientColor=none;gradientDirection=south;" vertex="1" parent="1">
                    <mxGeometry x="810" y="597.0799999999999" width="100" height="20" as="geometry"/>
                </mxCell>
                <mxCell id="692" value="idCarrito" style="text;html=1;strokeColor=none;fillColor=none;align=center;verticalAlign=middle;whiteSpace=wrap;rounded=0;fillStyle=auto;strokeWidth=1;fontSize=9;container=0;movable=1;resizable=1;rotatable=1;deletable=1;editable=1;connectable=1;" vertex="1" parent="1">
                    <mxGeometry x="360" y="614.16" width="60" height="10" as="geometry"/>
                </mxCell>
                <mxCell id="693" value="idUsuario" style="text;html=1;strokeColor=none;fillColor=none;align=center;verticalAlign=middle;whiteSpace=wrap;rounded=0;fillStyle=auto;strokeWidth=1;fontSize=9;" vertex="1" parent="1">
                    <mxGeometry x="360" y="634.16" width="60" height="10" as="geometry"/>
                </mxCell>
                <mxCell id="694" value="Fecha" style="text;html=1;strokeColor=none;fillColor=none;align=center;verticalAlign=middle;whiteSpace=wrap;rounded=0;fillStyle=auto;strokeWidth=1;fontSize=9;" vertex="1" parent="1">
                    <mxGeometry x="360" y="654.16" width="60" height="10" as="geometry"/>
                </mxCell>
                <mxCell id="695" value="hora" style="text;html=1;strokeColor=none;fillColor=none;align=center;verticalAlign=middle;whiteSpace=wrap;rounded=0;fillStyle=auto;strokeWidth=1;fontSize=9;" vertex="1" parent="1">
                    <mxGeometry x="360" y="674.16" width="60" height="10" as="geometry"/>
                </mxCell>
                <mxCell id="696" value="estado" style="text;html=1;strokeColor=none;fillColor=none;align=center;verticalAlign=middle;whiteSpace=wrap;rounded=0;fillStyle=auto;strokeWidth=1;fontSize=9;" vertex="1" parent="1">
                    <mxGeometry x="360" y="694.16" width="60" height="10" as="geometry"/>
                </mxCell>
                <mxCell id="701" value="Pedidos" style="whiteSpace=wrap;html=1;align=center;fillStyle=auto;strokeColor=#FF33FF;fillColor=none;gradientColor=none;gradientDirection=south;" vertex="1" parent="1">
                    <mxGeometry x="510" y="722.5" width="100" height="20" as="geometry"/>
                </mxCell>
                <mxCell id="702" style="edgeStyle=none;html=1;exitX=0;exitY=1;exitDx=0;exitDy=0;strokeColor=#000000;fontSize=9;" edge="1" source="703" parent="1">
                    <mxGeometry relative="1" as="geometry">
                        <mxPoint x="641.3333333333333" y="691.1666666666665" as="targetPoint"/>
                    </mxGeometry>
                </mxCell>
                <mxCell id="703" value="" style="ellipse;whiteSpace=wrap;html=1;aspect=fixed;fillStyle=auto;gradientDirection=south;strokeColor=#000000;fillColor=#000000;" vertex="1" parent="1">
                    <mxGeometry x="640" y="682.5" width="10" height="10" as="geometry"/>
                </mxCell>
                <mxCell id="704" value="" style="endArrow=none;html=1;rounded=0;exitX=1;exitY=0.25;exitDx=0;exitDy=0;entryX=0;entryY=0.5;entryDx=0;entryDy=0;strokeColor=#000000;" edge="1" source="701" target="703" parent="1">
                    <mxGeometry relative="1" as="geometry">
                        <mxPoint x="530" y="702.5" as="sourcePoint"/>
                        <mxPoint x="690" y="702.5" as="targetPoint"/>
                    </mxGeometry>
                </mxCell>
                <mxCell id="705" value="" style="ellipse;whiteSpace=wrap;html=1;aspect=fixed;fillStyle=auto;gradientDirection=west;strokeColor=#000000;fillColor=default;gradientColor=default;" vertex="1" parent="1">
                    <mxGeometry x="640" y="702.5" width="10" height="10" as="geometry"/>
                </mxCell>
                <mxCell id="706" value="" style="endArrow=none;html=1;rounded=0;exitX=1;exitY=0.25;exitDx=0;exitDy=0;entryX=0;entryY=0.5;entryDx=0;entryDy=0;strokeColor=#000000;" edge="1" source="701" target="705" parent="1">
                    <mxGeometry relative="1" as="geometry">
                        <mxPoint x="610" y="754.8399999999999" as="sourcePoint"/>
                        <mxPoint x="688.3" y="732.5" as="targetPoint"/>
                    </mxGeometry>
                </mxCell>
                <mxCell id="707" value="" style="ellipse;whiteSpace=wrap;html=1;aspect=fixed;fillStyle=auto;gradientDirection=west;strokeColor=#000000;fillColor=default;gradientColor=default;" vertex="1" parent="1">
                    <mxGeometry x="640" y="722.5" width="10" height="10" as="geometry"/>
                </mxCell>
                <mxCell id="708" value="" style="endArrow=none;html=1;rounded=0;exitX=1;exitY=0.25;exitDx=0;exitDy=0;entryX=0;entryY=0.5;entryDx=0;entryDy=0;strokeColor=#000000;" edge="1" source="701" target="707" parent="1">
                    <mxGeometry relative="1" as="geometry">
                        <mxPoint x="610" y="784.8399999999999" as="sourcePoint"/>
                        <mxPoint x="688.3" y="762.5" as="targetPoint"/>
                    </mxGeometry>
                </mxCell>
                <mxCell id="709" value="" style="ellipse;whiteSpace=wrap;html=1;aspect=fixed;fillStyle=auto;gradientDirection=south;strokeColor=#000000;fillColor=none;" vertex="1" parent="1">
                    <mxGeometry x="640" y="742.5" width="10" height="10" as="geometry"/>
                </mxCell>
                <mxCell id="710" value="" style="endArrow=none;html=1;rounded=0;exitX=1;exitY=0.25;exitDx=0;exitDy=0;entryX=0;entryY=0.5;entryDx=0;entryDy=0;strokeColor=#000000;" edge="1" source="701" target="709" parent="1">
                    <mxGeometry relative="1" as="geometry">
                        <mxPoint x="610" y="814.8399999999999" as="sourcePoint"/>
                        <mxPoint x="688.3" y="792.5" as="targetPoint"/>
                    </mxGeometry>
                </mxCell>
                <mxCell id="711" value="" style="ellipse;whiteSpace=wrap;html=1;aspect=fixed;fillStyle=auto;gradientDirection=south;strokeColor=#000000;fillColor=none;" vertex="1" parent="1">
                    <mxGeometry x="640" y="762.5" width="10" height="10" as="geometry"/>
                </mxCell>
                <mxCell id="712" value="" style="endArrow=none;html=1;rounded=0;exitX=1;exitY=0.25;exitDx=0;exitDy=0;entryX=0;entryY=0.5;entryDx=0;entryDy=0;strokeColor=#000000;" edge="1" source="701" target="711" parent="1">
                    <mxGeometry relative="1" as="geometry">
                        <mxPoint x="610" y="844.8399999999999" as="sourcePoint"/>
                        <mxPoint x="688.3" y="822.5" as="targetPoint"/>
                    </mxGeometry>
                </mxCell>
                <mxCell id="713" value="idPedido" style="text;html=1;strokeColor=none;fillColor=none;align=center;verticalAlign=middle;whiteSpace=wrap;rounded=0;fillStyle=auto;strokeWidth=1;fontSize=9;container=0;movable=1;resizable=1;rotatable=1;deletable=1;editable=1;connectable=1;" vertex="1" parent="1">
                    <mxGeometry x="650" y="682.5" width="60" height="10" as="geometry"/>
                </mxCell>
                <mxCell id="714" value="idUsuario" style="text;html=1;strokeColor=none;fillColor=none;align=center;verticalAlign=middle;whiteSpace=wrap;rounded=0;fillStyle=auto;strokeWidth=1;fontSize=9;" vertex="1" parent="1">
                    <mxGeometry x="650" y="702.5" width="60" height="10" as="geometry"/>
                </mxCell>
                <mxCell id="715" value="idcarrito" style="text;html=1;strokeColor=none;fillColor=none;align=center;verticalAlign=middle;whiteSpace=wrap;rounded=0;fillStyle=auto;strokeWidth=1;fontSize=9;" vertex="1" parent="1">
                    <mxGeometry x="650" y="722.5" width="60" height="10" as="geometry"/>
                </mxCell>
                <mxCell id="716" value="hora" style="text;html=1;strokeColor=none;fillColor=none;align=center;verticalAlign=middle;whiteSpace=wrap;rounded=0;fillStyle=auto;strokeWidth=1;fontSize=9;" vertex="1" parent="1">
                    <mxGeometry x="650" y="742.5" width="60" height="10" as="geometry"/>
                </mxCell>
                <mxCell id="717" value="fechaPedido" style="text;html=1;strokeColor=none;fillColor=none;align=center;verticalAlign=middle;whiteSpace=wrap;rounded=0;fillStyle=auto;strokeWidth=1;fontSize=9;" vertex="1" parent="1">
                    <mxGeometry x="650" y="762.5" width="60" height="10" as="geometry"/>
                </mxCell>
                <mxCell id="718" value="" style="ellipse;whiteSpace=wrap;html=1;aspect=fixed;fillStyle=auto;gradientDirection=south;strokeColor=#000000;fillColor=none;" vertex="1" parent="1">
                    <mxGeometry x="640" y="780" width="10" height="10" as="geometry"/>
                </mxCell>
                <mxCell id="719" value="" style="endArrow=none;html=1;rounded=0;exitX=1;exitY=0.25;exitDx=0;exitDy=0;entryX=0;entryY=0.5;entryDx=0;entryDy=0;strokeColor=#000000;" edge="1" source="701" target="718" parent="1">
                    <mxGeometry relative="1" as="geometry">
                        <mxPoint x="610" y="745" as="sourcePoint"/>
                        <mxPoint x="688.3" y="840" as="targetPoint"/>
                    </mxGeometry>
                </mxCell>
                <mxCell id="720" value="estado" style="text;html=1;strokeColor=none;fillColor=none;align=center;verticalAlign=middle;whiteSpace=wrap;rounded=0;fillStyle=auto;strokeWidth=1;fontSize=9;" vertex="1" parent="1">
                    <mxGeometry x="650" y="780" width="60" height="10" as="geometry"/>
                </mxCell>
            </root>
        </mxGraphModel>
    </diagram>
</mxfile>